<?xml version="1.0" encoding="utf-8" standalone="no"?>
<!DOCTYPE svg PUBLIC "-//W3C//DTD SVG 1.1//EN"
  "http://www.w3.org/Graphics/SVG/1.1/DTD/svg11.dtd">
<svg xmlns:xlink="http://www.w3.org/1999/xlink" width="576pt" height="374.4pt" viewBox="0 0 576 374.4" xmlns="http://www.w3.org/2000/svg" version="1.1">
 <metadata>
  <rdf:RDF xmlns:dc="http://purl.org/dc/elements/1.1/" xmlns:cc="http://creativecommons.org/ns#" xmlns:rdf="http://www.w3.org/1999/02/22-rdf-syntax-ns#">
   <cc:Work>
    <dc:type rdf:resource="http://purl.org/dc/dcmitype/StillImage"/>
    <dc:date>2026-05-05T20:28:37.270921</dc:date>
    <dc:format>image/svg+xml</dc:format>
    <dc:creator>
     <cc:Agent>
      <dc:title>Matplotlib v3.10.8, https://matplotlib.org/</dc:title>
     </cc:Agent>
    </dc:creator>
   </cc:Work>
  </rdf:RDF>
 </metadata>
 <defs>
  <style type="text/css">*{stroke-linejoin: round; stroke-linecap: butt}</style>
 </defs>
 <g id="figure_1">
  <g id="patch_1">
   <path d="M 0 374.4 
L 576 374.4 
L 576 0 
L 0 0 
z
" style="fill: #ffffff"/>
  </g>
  <g id="axes_1">
   <g id="patch_2">
    <path d="M 56.1575 346.4525 
L 565.2 346.4525 
L 565.2 26.88 
L 56.1575 26.88 
z
" style="fill: #ffffff"/>
   </g>
   <g id="patch_3">
    <path d="M 79.295795 213.711229 
L 138.004903 213.711229 
L 138.004903 202.142559 
L 79.295795 202.142559 
z
" clip-path="url(#pe687f84b93)" style="fill: #4e79a7"/>
   </g>
   <g id="patch_4">
    <path d="M 251.969642 213.711229 
L 310.67875 213.711229 
L 310.67875 186.66625 
L 251.969642 186.66625 
z
" clip-path="url(#pe687f84b93)" style="fill: #4e79a7"/>
   </g>
   <g id="patch_5">
    <path d="M 424.643489 213.711229 
L 483.352597 213.711229 
L 483.352597 225.485564 
L 424.643489 225.485564 
z
" clip-path="url(#pe687f84b93)" style="fill: #4e79a7"/>
   </g>
   <g id="patch_6">
    <path d="M 138.004903 213.711229 
L 196.714011 213.711229 
L 196.714011 207.541272 
L 138.004903 207.541272 
z
" clip-path="url(#pe687f84b93)" style="fill: #f28e2b"/>
   </g>
   <g id="patch_7">
    <path d="M 310.67875 213.711229 
L 369.387858 213.711229 
L 369.387858 210.009254 
L 310.67875 210.009254 
z
" clip-path="url(#pe687f84b93)" style="fill: #f28e2b"/>
   </g>
   <g id="patch_8">
    <path d="M 483.352597 213.711229 
L 542.061705 213.711229 
L 542.061705 208.775263 
L 483.352597 208.775263 
z
" clip-path="url(#pe687f84b93)" style="fill: #f28e2b"/>
   </g>
   <g id="matplotlib.axis_1">
    <g id="xtick_1">
     <g id="line2d_1">
      <defs>
       <path id="mdb642e051e" d="M 0 0 
L 0 3.5 
" style="stroke: #000000; stroke-width: 0.8"/>
      </defs>
      <g>
       <use xlink:href="#mdb642e051e" x="138.004903" y="346.4525" style="stroke: #000000; stroke-width: 0.8"/>
      </g>
     </g>
     <g id="text_1">
      <!-- Точность -->
      <g transform="translate(114.000997 361.050938) scale(0.1 -0.1)">
       <defs>
        <path id="DejaVuSans-422" d="M -19 4666 
L 3928 4666 
L 3928 4134 
L 2272 4134 
L 2272 0 
L 1638 0 
L 1638 4134 
L -19 4134 
L -19 4666 
z
" transform="scale(0.015625)"/>
        <path id="DejaVuSans-43e" d="M 1959 3097 
Q 1497 3097 1228 2736 
Q 959 2375 959 1747 
Q 959 1119 1226 758 
Q 1494 397 1959 397 
Q 2419 397 2687 759 
Q 2956 1122 2956 1747 
Q 2956 2369 2687 2733 
Q 2419 3097 1959 3097 
z
M 1959 3584 
Q 2709 3584 3137 3096 
Q 3566 2609 3566 1747 
Q 3566 888 3137 398 
Q 2709 -91 1959 -91 
Q 1206 -91 779 398 
Q 353 888 353 1747 
Q 353 2609 779 3096 
Q 1206 3584 1959 3584 
z
" transform="scale(0.015625)"/>
        <path id="DejaVuSans-447" d="M 2625 0 
L 2625 1472 
L 1553 1472 
Q 1075 1472 756 1769 
Q 469 2038 469 2613 
L 469 3500 
L 1044 3500 
L 1044 2666 
Q 1044 2300 1206 2116 
Q 1372 1931 1697 1931 
L 2625 1931 
L 2625 3500 
L 3200 3500 
L 3200 0 
L 2625 0 
z
" transform="scale(0.015625)"/>
        <path id="DejaVuSans-43d" d="M 581 3500 
L 1159 3500 
L 1159 2072 
L 3025 2072 
L 3025 3500 
L 3603 3500 
L 3603 0 
L 3025 0 
L 3025 1613 
L 1159 1613 
L 1159 0 
L 581 0 
L 581 3500 
z
" transform="scale(0.015625)"/>
        <path id="DejaVuSans-441" d="M 3122 3366 
L 3122 2828 
Q 2878 2963 2633 3030 
Q 2388 3097 2138 3097 
Q 1578 3097 1268 2742 
Q 959 2388 959 1747 
Q 959 1106 1268 751 
Q 1578 397 2138 397 
Q 2388 397 2633 464 
Q 2878 531 3122 666 
L 3122 134 
Q 2881 22 2623 -34 
Q 2366 -91 2075 -91 
Q 1284 -91 818 406 
Q 353 903 353 1747 
Q 353 2603 823 3093 
Q 1294 3584 2113 3584 
Q 2378 3584 2631 3529 
Q 2884 3475 3122 3366 
z
" transform="scale(0.015625)"/>
        <path id="DejaVuSans-442" d="M 188 3500 
L 3541 3500 
L 3541 3041 
L 2147 3041 
L 2147 0 
L 1581 0 
L 1581 3041 
L 188 3041 
L 188 3500 
z
" transform="scale(0.015625)"/>
        <path id="DejaVuSans-44c" d="M 2781 1038 
Q 2781 1319 2576 1466 
Q 2372 1613 1978 1613 
L 1159 1613 
L 1159 459 
L 1978 459 
Q 2372 459 2576 607 
Q 2781 756 2781 1038 
z
M 581 3500 
L 1159 3500 
L 1159 2072 
L 2003 2072 
Q 2672 2072 3033 1817 
Q 3394 1563 3394 1038 
Q 3394 513 3033 256 
Q 2672 0 2003 0 
L 581 0 
L 581 3500 
z
" transform="scale(0.015625)"/>
       </defs>
       <use xlink:href="#DejaVuSans-422"/>
       <use xlink:href="#DejaVuSans-43e" transform="translate(61.083984 0)"/>
       <use xlink:href="#DejaVuSans-447" transform="translate(122.265625 0)"/>
       <use xlink:href="#DejaVuSans-43d" transform="translate(181.347656 0)"/>
       <use xlink:href="#DejaVuSans-43e" transform="translate(246.728516 0)"/>
       <use xlink:href="#DejaVuSans-441" transform="translate(307.910156 0)"/>
       <use xlink:href="#DejaVuSans-442" transform="translate(362.890625 0)"/>
       <use xlink:href="#DejaVuSans-44c" transform="translate(421.142578 0)"/>
      </g>
     </g>
    </g>
    <g id="xtick_2">
     <g id="line2d_2">
      <g>
       <use xlink:href="#mdb642e051e" x="310.67875" y="346.4525" style="stroke: #000000; stroke-width: 0.8"/>
      </g>
     </g>
     <g id="text_2">
      <!-- Педагогическая оценка -->
      <g transform="translate(247.404531 361.050938) scale(0.1 -0.1)">
       <defs>
        <path id="DejaVuSans-41f" d="M 4184 4666 
L 4184 0 
L 3553 0 
L 3553 4134 
L 1259 4134 
L 1259 0 
L 628 0 
L 628 4666 
L 4184 4666 
z
" transform="scale(0.015625)"/>
        <path id="DejaVuSans-435" d="M 3597 1894 
L 3597 1613 
L 953 1613 
Q 991 1019 1311 708 
Q 1631 397 2203 397 
Q 2534 397 2845 478 
Q 3156 559 3463 722 
L 3463 178 
Q 3153 47 2828 -22 
Q 2503 -91 2169 -91 
Q 1331 -91 842 396 
Q 353 884 353 1716 
Q 353 2575 817 3079 
Q 1281 3584 2069 3584 
Q 2775 3584 3186 3129 
Q 3597 2675 3597 1894 
z
M 3022 2063 
Q 3016 2534 2758 2815 
Q 2500 3097 2075 3097 
Q 1594 3097 1305 2825 
Q 1016 2553 972 2059 
L 3022 2063 
z
" transform="scale(0.015625)"/>
        <path id="DejaVuSans-434" d="M 1384 459 
L 3053 459 
L 3053 3041 
L 1844 3041 
L 1844 2603 
Q 1844 1316 1475 628 
L 1384 459 
z
M 550 459 
Q 834 584 959 850 
Q 1266 1509 1266 2838 
L 1266 3500 
L 3631 3500 
L 3631 459 
L 4091 459 
L 4091 -884 
L 3631 -884 
L 3631 0 
L 794 0 
L 794 -884 
L 334 -884 
L 334 459 
L 550 459 
z
" transform="scale(0.015625)"/>
        <path id="DejaVuSans-430" d="M 2194 1759 
Q 1497 1759 1228 1600 
Q 959 1441 959 1056 
Q 959 750 1161 570 
Q 1363 391 1709 391 
Q 2188 391 2477 730 
Q 2766 1069 2766 1631 
L 2766 1759 
L 2194 1759 
z
M 3341 1997 
L 3341 0 
L 2766 0 
L 2766 531 
Q 2569 213 2275 61 
Q 1981 -91 1556 -91 
Q 1019 -91 701 211 
Q 384 513 384 1019 
Q 384 1609 779 1909 
Q 1175 2209 1959 2209 
L 2766 2209 
L 2766 2266 
Q 2766 2663 2505 2880 
Q 2244 3097 1772 3097 
Q 1472 3097 1187 3025 
Q 903 2953 641 2809 
L 641 3341 
Q 956 3463 1253 3523 
Q 1550 3584 1831 3584 
Q 2591 3584 2966 3190 
Q 3341 2797 3341 1997 
z
" transform="scale(0.015625)"/>
        <path id="DejaVuSans-433" d="M 581 0 
L 581 3500 
L 3050 3500 
L 3050 3041 
L 1159 3041 
L 1159 0 
L 581 0 
z
" transform="scale(0.015625)"/>
        <path id="DejaVuSans-438" d="M 3578 3500 
L 3578 0 
L 3006 0 
L 3006 2809 
L 1319 0 
L 581 0 
L 581 3500 
L 1153 3500 
L 1153 697 
L 2838 3500 
L 3578 3500 
z
" transform="scale(0.015625)"/>
        <path id="DejaVuSans-43a" d="M 581 3500 
L 1153 3500 
L 1153 1856 
L 2775 3500 
L 3481 3500 
L 2144 2147 
L 3653 0 
L 3009 0 
L 1769 1766 
L 1153 1141 
L 1153 0 
L 581 0 
L 581 3500 
z
" transform="scale(0.015625)"/>
        <path id="DejaVuSans-44f" d="M 1181 2491 
Q 1181 2231 1381 2084 
Q 1581 1938 1953 1938 
L 2728 1938 
L 2728 3041 
L 1953 3041 
Q 1581 3041 1381 2897 
Q 1181 2753 1181 2491 
z
M 363 0 
L 1431 1534 
Q 1069 1616 828 1830 
Q 588 2044 588 2491 
Q 588 2997 923 3248 
Q 1259 3500 1938 3500 
L 3306 3500 
L 3306 0 
L 2728 0 
L 2728 1478 
L 2013 1478 
L 981 0 
L 363 0 
z
" transform="scale(0.015625)"/>
        <path id="DejaVuSans-20" transform="scale(0.015625)"/>
        <path id="DejaVuSans-446" d="M 3603 0 
L 581 0 
L 581 3500 
L 1159 3500 
L 1159 459 
L 3025 459 
L 3025 3500 
L 3603 3500 
L 3603 459 
L 4063 459 
L 4063 -884 
L 3603 -884 
L 3603 0 
z
" transform="scale(0.015625)"/>
       </defs>
       <use xlink:href="#DejaVuSans-41f"/>
       <use xlink:href="#DejaVuSans-435" transform="translate(75.195312 0)"/>
       <use xlink:href="#DejaVuSans-434" transform="translate(136.71875 0)"/>
       <use xlink:href="#DejaVuSans-430" transform="translate(205.859375 0)"/>
       <use xlink:href="#DejaVuSans-433" transform="translate(267.138672 0)"/>
       <use xlink:href="#DejaVuSans-43e" transform="translate(319.677734 0)"/>
       <use xlink:href="#DejaVuSans-433" transform="translate(380.859375 0)"/>
       <use xlink:href="#DejaVuSans-438" transform="translate(433.398438 0)"/>
       <use xlink:href="#DejaVuSans-447" transform="translate(498.388672 0)"/>
       <use xlink:href="#DejaVuSans-435" transform="translate(557.470703 0)"/>
       <use xlink:href="#DejaVuSans-441" transform="translate(618.994141 0)"/>
       <use xlink:href="#DejaVuSans-43a" transform="translate(673.974609 0)"/>
       <use xlink:href="#DejaVuSans-430" transform="translate(734.375 0)"/>
       <use xlink:href="#DejaVuSans-44f" transform="translate(795.654297 0)"/>
       <use xlink:href="#DejaVuSans-20" transform="translate(855.810547 0)"/>
       <use xlink:href="#DejaVuSans-43e" transform="translate(887.597656 0)"/>
       <use xlink:href="#DejaVuSans-446" transform="translate(948.779297 0)"/>
       <use xlink:href="#DejaVuSans-435" transform="translate(1016.845703 0)"/>
       <use xlink:href="#DejaVuSans-43d" transform="translate(1078.369141 0)"/>
       <use xlink:href="#DejaVuSans-43a" transform="translate(1143.75 0)"/>
       <use xlink:href="#DejaVuSans-430" transform="translate(1204.150391 0)"/>
      </g>
     </g>
    </g>
    <g id="xtick_3">
     <g id="line2d_3">
      <g>
       <use xlink:href="#mdb642e051e" x="483.352597" y="346.4525" style="stroke: #000000; stroke-width: 0.8"/>
      </g>
     </g>
     <g id="text_3">
      <!-- Доля скрытых ошибок -->
      <g transform="translate(424.247128 361.22125) scale(0.1 -0.1)">
       <defs>
        <path id="DejaVuSans-414" d="M 1459 531 
L 3522 531 
L 3522 4134 
L 2006 4134 
L 2006 3472 
Q 2006 1913 1656 878 
Q 1584 666 1459 531 
z
M 538 531 
Q 956 728 1075 1103 
Q 1378 2066 1378 3784 
L 1378 4666 
L 4153 4666 
L 4153 531 
L 4684 531 
L 4684 -1003 
L 4153 -1003 
L 4153 0 
L 847 0 
L 847 -1003 
L 316 -1003 
L 316 531 
L 538 531 
z
" transform="scale(0.015625)"/>
        <path id="DejaVuSans-43b" d="M 238 0 
L 238 478 
Q 806 566 981 959 
Q 1194 1513 1194 2928 
L 1194 3500 
L 3559 3500 
L 3559 0 
L 2984 0 
L 2984 3041 
L 1769 3041 
L 1769 2694 
Q 1769 1344 1494 738 
Q 1200 91 238 0 
z
" transform="scale(0.015625)"/>
        <path id="DejaVuSans-440" d="M 1159 525 
L 1159 -1331 
L 581 -1331 
L 581 3500 
L 1159 3500 
L 1159 2969 
Q 1341 3281 1617 3432 
Q 1894 3584 2278 3584 
Q 2916 3584 3314 3078 
Q 3713 2572 3713 1747 
Q 3713 922 3314 415 
Q 2916 -91 2278 -91 
Q 1894 -91 1617 61 
Q 1341 213 1159 525 
z
M 3116 1747 
Q 3116 2381 2855 2742 
Q 2594 3103 2138 3103 
Q 1681 3103 1420 2742 
Q 1159 2381 1159 1747 
Q 1159 1113 1420 752 
Q 1681 391 2138 391 
Q 2594 391 2855 752 
Q 3116 1113 3116 1747 
z
" transform="scale(0.015625)"/>
        <path id="DejaVuSans-44b" d="M 3907 3500 
L 4482 3500 
L 4482 0 
L 3907 0 
L 3907 3500 
z
M 4195 3584 
L 4195 3584 
z
M 2781 1038 
Q 2781 1319 2576 1466 
Q 2372 1613 1978 1613 
L 1159 1613 
L 1159 459 
L 1978 459 
Q 2372 459 2576 607 
Q 2781 756 2781 1038 
z
M 581 3500 
L 1159 3500 
L 1159 2072 
L 2003 2072 
Q 2672 2072 3033 1817 
Q 3394 1563 3394 1038 
Q 3394 513 3033 256 
Q 2672 0 2003 0 
L 581 0 
L 581 3500 
z
" transform="scale(0.015625)"/>
        <path id="DejaVuSans-445" d="M 3513 3500 
L 2247 1797 
L 3578 0 
L 2900 0 
L 1881 1375 
L 863 0 
L 184 0 
L 1544 1831 
L 300 3500 
L 978 3500 
L 1906 2253 
L 2834 3500 
L 3513 3500 
z
" transform="scale(0.015625)"/>
        <path id="DejaVuSans-448" d="M 3216 459 
L 4697 459 
L 4697 3500 
L 5275 3500 
L 5275 0 
L 581 0 
L 581 3500 
L 1159 3500 
L 1159 459 
L 2638 459 
L 2638 3500 
L 3216 3500 
L 3216 459 
z
" transform="scale(0.015625)"/>
        <path id="DejaVuSans-431" d="M 1991 3584 
Q 2741 3584 3169 3096 
Q 3597 2609 3597 1747 
Q 3597 888 3169 398 
Q 2741 -91 1991 -91 
Q 1238 -91 822 384 
Q 406 859 384 1747 
L 366 2463 
Q 350 2834 350 2963 
Q 350 3463 531 3831 
Q 816 4409 1308 4659 
Q 1800 4909 2625 4916 
Q 3006 4919 3175 4972 
L 3334 4516 
Q 3181 4453 3041 4450 
L 2259 4397 
Q 1866 4369 1628 4231 
Q 1006 3866 947 3388 
L 925 3213 
Q 1331 3584 1991 3584 
z
M 1991 3097 
Q 1528 3097 1259 2736 
Q 991 2375 991 1747 
Q 991 1119 1258 758 
Q 1525 397 1991 397 
Q 2450 397 2719 759 
Q 2988 1122 2988 1747 
Q 2988 2369 2719 2733 
Q 2450 3097 1991 3097 
z
" transform="scale(0.015625)"/>
       </defs>
       <use xlink:href="#DejaVuSans-414"/>
       <use xlink:href="#DejaVuSans-43e" transform="translate(78.125 0)"/>
       <use xlink:href="#DejaVuSans-43b" transform="translate(139.306641 0)"/>
       <use xlink:href="#DejaVuSans-44f" transform="translate(203.222656 0)"/>
       <use xlink:href="#DejaVuSans-20" transform="translate(263.378906 0)"/>
       <use xlink:href="#DejaVuSans-441" transform="translate(295.166016 0)"/>
       <use xlink:href="#DejaVuSans-43a" transform="translate(350.146484 0)"/>
       <use xlink:href="#DejaVuSans-440" transform="translate(410.546875 0)"/>
       <use xlink:href="#DejaVuSans-44b" transform="translate(474.023438 0)"/>
       <use xlink:href="#DejaVuSans-442" transform="translate(552.978516 0)"/>
       <use xlink:href="#DejaVuSans-44b" transform="translate(611.230469 0)"/>
       <use xlink:href="#DejaVuSans-445" transform="translate(690.185547 0)"/>
       <use xlink:href="#DejaVuSans-20" transform="translate(749.365234 0)"/>
       <use xlink:href="#DejaVuSans-43e" transform="translate(781.152344 0)"/>
       <use xlink:href="#DejaVuSans-448" transform="translate(842.333984 0)"/>
       <use xlink:href="#DejaVuSans-438" transform="translate(933.837891 0)"/>
       <use xlink:href="#DejaVuSans-431" transform="translate(998.828125 0)"/>
       <use xlink:href="#DejaVuSans-43e" transform="translate(1060.498047 0)"/>
       <use xlink:href="#DejaVuSans-43a" transform="translate(1121.679688 0)"/>
      </g>
     </g>
    </g>
   </g>
   <g id="matplotlib.axis_2">
    <g id="ytick_1">
     <g id="line2d_4">
      <defs>
       <path id="m63cb6d087a" d="M 0 0 
L -3.5 0 
" style="stroke: #000000; stroke-width: 0.8"/>
      </defs>
      <g>
       <use xlink:href="#m63cb6d087a" x="56.1575" y="324.770457" style="stroke: #000000; stroke-width: 0.8"/>
      </g>
     </g>
     <g id="text_4">
      <!-- −0.6 -->
      <g transform="translate(24.874688 328.569676) scale(0.1 -0.1)">
       <defs>
        <path id="DejaVuSans-2212" d="M 678 2272 
L 4684 2272 
L 4684 1741 
L 678 1741 
L 678 2272 
z
" transform="scale(0.015625)"/>
        <path id="DejaVuSans-30" d="M 2034 4250 
Q 1547 4250 1301 3770 
Q 1056 3291 1056 2328 
Q 1056 1369 1301 889 
Q 1547 409 2034 409 
Q 2525 409 2770 889 
Q 3016 1369 3016 2328 
Q 3016 3291 2770 3770 
Q 2525 4250 2034 4250 
z
M 2034 4750 
Q 2819 4750 3233 4129 
Q 3647 3509 3647 2328 
Q 3647 1150 3233 529 
Q 2819 -91 2034 -91 
Q 1250 -91 836 529 
Q 422 1150 422 2328 
Q 422 3509 836 4129 
Q 1250 4750 2034 4750 
z
" transform="scale(0.015625)"/>
        <path id="DejaVuSans-2e" d="M 684 794 
L 1344 794 
L 1344 0 
L 684 0 
L 684 794 
z
" transform="scale(0.015625)"/>
        <path id="DejaVuSans-36" d="M 2113 2584 
Q 1688 2584 1439 2293 
Q 1191 2003 1191 1497 
Q 1191 994 1439 701 
Q 1688 409 2113 409 
Q 2538 409 2786 701 
Q 3034 994 3034 1497 
Q 3034 2003 2786 2293 
Q 2538 2584 2113 2584 
z
M 3366 4563 
L 3366 3988 
Q 3128 4100 2886 4159 
Q 2644 4219 2406 4219 
Q 1781 4219 1451 3797 
Q 1122 3375 1075 2522 
Q 1259 2794 1537 2939 
Q 1816 3084 2150 3084 
Q 2853 3084 3261 2657 
Q 3669 2231 3669 1497 
Q 3669 778 3244 343 
Q 2819 -91 2113 -91 
Q 1303 -91 875 529 
Q 447 1150 447 2328 
Q 447 3434 972 4092 
Q 1497 4750 2381 4750 
Q 2619 4750 2861 4703 
Q 3103 4656 3366 4563 
z
" transform="scale(0.015625)"/>
       </defs>
       <use xlink:href="#DejaVuSans-2212"/>
       <use xlink:href="#DejaVuSans-30" transform="translate(83.789062 0)"/>
       <use xlink:href="#DejaVuSans-2e" transform="translate(147.412109 0)"/>
       <use xlink:href="#DejaVuSans-36" transform="translate(179.199219 0)"/>
      </g>
     </g>
    </g>
    <g id="ytick_2">
     <g id="line2d_5">
      <g>
       <use xlink:href="#m63cb6d087a" x="56.1575" y="287.750714" style="stroke: #000000; stroke-width: 0.8"/>
      </g>
     </g>
     <g id="text_5">
      <!-- −0.4 -->
      <g transform="translate(24.874688 291.549933) scale(0.1 -0.1)">
       <defs>
        <path id="DejaVuSans-34" d="M 2419 4116 
L 825 1625 
L 2419 1625 
L 2419 4116 
z
M 2253 4666 
L 3047 4666 
L 3047 1625 
L 3713 1625 
L 3713 1100 
L 3047 1100 
L 3047 0 
L 2419 0 
L 2419 1100 
L 313 1100 
L 313 1709 
L 2253 4666 
z
" transform="scale(0.015625)"/>
       </defs>
       <use xlink:href="#DejaVuSans-2212"/>
       <use xlink:href="#DejaVuSans-30" transform="translate(83.789062 0)"/>
       <use xlink:href="#DejaVuSans-2e" transform="translate(147.412109 0)"/>
       <use xlink:href="#DejaVuSans-34" transform="translate(179.199219 0)"/>
      </g>
     </g>
    </g>
    <g id="ytick_3">
     <g id="line2d_6">
      <g>
       <use xlink:href="#m63cb6d087a" x="56.1575" y="250.730972" style="stroke: #000000; stroke-width: 0.8"/>
      </g>
     </g>
     <g id="text_6">
      <!-- −0.2 -->
      <g transform="translate(24.874688 254.53019) scale(0.1 -0.1)">
       <defs>
        <path id="DejaVuSans-32" d="M 1228 531 
L 3431 531 
L 3431 0 
L 469 0 
L 469 531 
Q 828 903 1448 1529 
Q 2069 2156 2228 2338 
Q 2531 2678 2651 2914 
Q 2772 3150 2772 3378 
Q 2772 3750 2511 3984 
Q 2250 4219 1831 4219 
Q 1534 4219 1204 4116 
Q 875 4013 500 3803 
L 500 4441 
Q 881 4594 1212 4672 
Q 1544 4750 1819 4750 
Q 2544 4750 2975 4387 
Q 3406 4025 3406 3419 
Q 3406 3131 3298 2873 
Q 3191 2616 2906 2266 
Q 2828 2175 2409 1742 
Q 1991 1309 1228 531 
z
" transform="scale(0.015625)"/>
       </defs>
       <use xlink:href="#DejaVuSans-2212"/>
       <use xlink:href="#DejaVuSans-30" transform="translate(83.789062 0)"/>
       <use xlink:href="#DejaVuSans-2e" transform="translate(147.412109 0)"/>
       <use xlink:href="#DejaVuSans-32" transform="translate(179.199219 0)"/>
      </g>
     </g>
    </g>
    <g id="ytick_4">
     <g id="line2d_7">
      <g>
       <use xlink:href="#m63cb6d087a" x="56.1575" y="213.711229" style="stroke: #000000; stroke-width: 0.8"/>
      </g>
     </g>
     <g id="text_7">
      <!-- 0.0 -->
      <g transform="translate(33.254375 217.510447) scale(0.1 -0.1)">
       <use xlink:href="#DejaVuSans-30"/>
       <use xlink:href="#DejaVuSans-2e" transform="translate(63.623047 0)"/>
       <use xlink:href="#DejaVuSans-30" transform="translate(95.410156 0)"/>
      </g>
     </g>
    </g>
    <g id="ytick_5">
     <g id="line2d_8">
      <g>
       <use xlink:href="#m63cb6d087a" x="56.1575" y="176.691486" style="stroke: #000000; stroke-width: 0.8"/>
      </g>
     </g>
     <g id="text_8">
      <!-- 0.2 -->
      <g transform="translate(33.254375 180.490705) scale(0.1 -0.1)">
       <use xlink:href="#DejaVuSans-30"/>
       <use xlink:href="#DejaVuSans-2e" transform="translate(63.623047 0)"/>
       <use xlink:href="#DejaVuSans-32" transform="translate(95.410156 0)"/>
      </g>
     </g>
    </g>
    <g id="ytick_6">
     <g id="line2d_9">
      <g>
       <use xlink:href="#m63cb6d087a" x="56.1575" y="139.671743" style="stroke: #000000; stroke-width: 0.8"/>
      </g>
     </g>
     <g id="text_9">
      <!-- 0.4 -->
      <g transform="translate(33.254375 143.470962) scale(0.1 -0.1)">
       <use xlink:href="#DejaVuSans-30"/>
       <use xlink:href="#DejaVuSans-2e" transform="translate(63.623047 0)"/>
       <use xlink:href="#DejaVuSans-34" transform="translate(95.410156 0)"/>
      </g>
     </g>
    </g>
    <g id="ytick_7">
     <g id="line2d_10">
      <g>
       <use xlink:href="#m63cb6d087a" x="56.1575" y="102.652" style="stroke: #000000; stroke-width: 0.8"/>
      </g>
     </g>
     <g id="text_10">
      <!-- 0.6 -->
      <g transform="translate(33.254375 106.451219) scale(0.1 -0.1)">
       <use xlink:href="#DejaVuSans-30"/>
       <use xlink:href="#DejaVuSans-2e" transform="translate(63.623047 0)"/>
       <use xlink:href="#DejaVuSans-36" transform="translate(95.410156 0)"/>
      </g>
     </g>
    </g>
    <g id="ytick_8">
     <g id="line2d_11">
      <g>
       <use xlink:href="#m63cb6d087a" x="56.1575" y="65.632258" style="stroke: #000000; stroke-width: 0.8"/>
      </g>
     </g>
     <g id="text_11">
      <!-- 0.8 -->
      <g transform="translate(33.254375 69.431476) scale(0.1 -0.1)">
       <defs>
        <path id="DejaVuSans-38" d="M 2034 2216 
Q 1584 2216 1326 1975 
Q 1069 1734 1069 1313 
Q 1069 891 1326 650 
Q 1584 409 2034 409 
Q 2484 409 2743 651 
Q 3003 894 3003 1313 
Q 3003 1734 2745 1975 
Q 2488 2216 2034 2216 
z
M 1403 2484 
Q 997 2584 770 2862 
Q 544 3141 544 3541 
Q 544 4100 942 4425 
Q 1341 4750 2034 4750 
Q 2731 4750 3128 4425 
Q 3525 4100 3525 3541 
Q 3525 3141 3298 2862 
Q 3072 2584 2669 2484 
Q 3125 2378 3379 2068 
Q 3634 1759 3634 1313 
Q 3634 634 3220 271 
Q 2806 -91 2034 -91 
Q 1263 -91 848 271 
Q 434 634 434 1313 
Q 434 1759 690 2068 
Q 947 2378 1403 2484 
z
M 1172 3481 
Q 1172 3119 1398 2916 
Q 1625 2713 2034 2713 
Q 2441 2713 2670 2916 
Q 2900 3119 2900 3481 
Q 2900 3844 2670 4047 
Q 2441 4250 2034 4250 
Q 1625 4250 1398 4047 
Q 1172 3844 1172 3481 
z
" transform="scale(0.015625)"/>
       </defs>
       <use xlink:href="#DejaVuSans-30"/>
       <use xlink:href="#DejaVuSans-2e" transform="translate(63.623047 0)"/>
       <use xlink:href="#DejaVuSans-38" transform="translate(95.410156 0)"/>
      </g>
     </g>
    </g>
    <g id="ytick_9">
     <g id="line2d_12">
      <g>
       <use xlink:href="#m63cb6d087a" x="56.1575" y="28.612515" style="stroke: #000000; stroke-width: 0.8"/>
      </g>
     </g>
     <g id="text_12">
      <!-- 1.0 -->
      <g transform="translate(33.254375 32.411734) scale(0.1 -0.1)">
       <defs>
        <path id="DejaVuSans-31" d="M 794 531 
L 1825 531 
L 1825 4091 
L 703 3866 
L 703 4441 
L 1819 4666 
L 2450 4666 
L 2450 531 
L 3481 531 
L 3481 0 
L 794 0 
L 794 531 
z
" transform="scale(0.015625)"/>
       </defs>
       <use xlink:href="#DejaVuSans-31"/>
       <use xlink:href="#DejaVuSans-2e" transform="translate(63.623047 0)"/>
       <use xlink:href="#DejaVuSans-30" transform="translate(95.410156 0)"/>
      </g>
     </g>
    </g>
    <g id="text_13">
     <!-- Дельта DBR − обычное рециклирование -->
     <g transform="translate(18.795 293.726406) rotate(-90) scale(0.1 -0.1)">
      <defs>
       <path id="DejaVuSans-44" d="M 1259 4147 
L 1259 519 
L 2022 519 
Q 2988 519 3436 956 
Q 3884 1394 3884 2338 
Q 3884 3275 3436 3711 
Q 2988 4147 2022 4147 
L 1259 4147 
z
M 628 4666 
L 1925 4666 
Q 3281 4666 3915 4102 
Q 4550 3538 4550 2338 
Q 4550 1131 3912 565 
Q 3275 0 1925 0 
L 628 0 
L 628 4666 
z
" transform="scale(0.015625)"/>
       <path id="DejaVuSans-42" d="M 1259 2228 
L 1259 519 
L 2272 519 
Q 2781 519 3026 730 
Q 3272 941 3272 1375 
Q 3272 1813 3026 2020 
Q 2781 2228 2272 2228 
L 1259 2228 
z
M 1259 4147 
L 1259 2741 
L 2194 2741 
Q 2656 2741 2882 2914 
Q 3109 3088 3109 3444 
Q 3109 3797 2882 3972 
Q 2656 4147 2194 4147 
L 1259 4147 
z
M 628 4666 
L 2241 4666 
Q 2963 4666 3353 4366 
Q 3744 4066 3744 3513 
Q 3744 3084 3544 2831 
Q 3344 2578 2956 2516 
Q 3422 2416 3680 2098 
Q 3938 1781 3938 1306 
Q 3938 681 3513 340 
Q 3088 0 2303 0 
L 628 0 
L 628 4666 
z
" transform="scale(0.015625)"/>
       <path id="DejaVuSans-52" d="M 2841 2188 
Q 3044 2119 3236 1894 
Q 3428 1669 3622 1275 
L 4263 0 
L 3584 0 
L 2988 1197 
Q 2756 1666 2539 1819 
Q 2322 1972 1947 1972 
L 1259 1972 
L 1259 0 
L 628 0 
L 628 4666 
L 2053 4666 
Q 2853 4666 3247 4331 
Q 3641 3997 3641 3322 
Q 3641 2881 3436 2590 
Q 3231 2300 2841 2188 
z
M 1259 4147 
L 1259 2491 
L 2053 2491 
Q 2509 2491 2742 2702 
Q 2975 2913 2975 3322 
Q 2975 3731 2742 3939 
Q 2509 4147 2053 4147 
L 1259 4147 
z
" transform="scale(0.015625)"/>
       <path id="DejaVuSans-432" d="M 1156 1613 
L 1156 459 
L 1975 459 
Q 2369 459 2575 607 
Q 2781 756 2781 1038 
Q 2781 1319 2575 1466 
Q 2369 1613 1975 1613 
L 1156 1613 
z
M 1156 3041 
L 1156 2072 
L 1913 2072 
Q 2238 2072 2444 2201 
Q 2650 2331 2650 2563 
Q 2650 2794 2444 2917 
Q 2238 3041 1913 3041 
L 1156 3041 
z
M 581 3500 
L 1950 3500 
Q 2566 3500 2897 3275 
Q 3228 3050 3228 2634 
Q 3228 2313 3059 2123 
Q 2891 1934 2559 1888 
Q 2956 1813 3175 1575 
Q 3394 1338 3394 981 
Q 3394 513 3033 256 
Q 2672 0 2003 0 
L 581 0 
L 581 3500 
z
" transform="scale(0.015625)"/>
      </defs>
      <use xlink:href="#DejaVuSans-414"/>
      <use xlink:href="#DejaVuSans-435" transform="translate(78.125 0)"/>
      <use xlink:href="#DejaVuSans-43b" transform="translate(139.648438 0)"/>
      <use xlink:href="#DejaVuSans-44c" transform="translate(203.564453 0)"/>
      <use xlink:href="#DejaVuSans-442" transform="translate(262.5 0)"/>
      <use xlink:href="#DejaVuSans-430" transform="translate(320.751953 0)"/>
      <use xlink:href="#DejaVuSans-20" transform="translate(382.03125 0)"/>
      <use xlink:href="#DejaVuSans-44" transform="translate(413.818359 0)"/>
      <use xlink:href="#DejaVuSans-42" transform="translate(490.820312 0)"/>
      <use xlink:href="#DejaVuSans-52" transform="translate(559.423828 0)"/>
      <use xlink:href="#DejaVuSans-20" transform="translate(628.90625 0)"/>
      <use xlink:href="#DejaVuSans-2212" transform="translate(660.693359 0)"/>
      <use xlink:href="#DejaVuSans-20" transform="translate(744.482422 0)"/>
      <use xlink:href="#DejaVuSans-43e" transform="translate(776.269531 0)"/>
      <use xlink:href="#DejaVuSans-431" transform="translate(837.451172 0)"/>
      <use xlink:href="#DejaVuSans-44b" transform="translate(899.121094 0)"/>
      <use xlink:href="#DejaVuSans-447" transform="translate(978.076172 0)"/>
      <use xlink:href="#DejaVuSans-43d" transform="translate(1037.158203 0)"/>
      <use xlink:href="#DejaVuSans-43e" transform="translate(1102.539062 0)"/>
      <use xlink:href="#DejaVuSans-435" transform="translate(1163.720703 0)"/>
      <use xlink:href="#DejaVuSans-20" transform="translate(1225.244141 0)"/>
      <use xlink:href="#DejaVuSans-440" transform="translate(1257.03125 0)"/>
      <use xlink:href="#DejaVuSans-435" transform="translate(1320.507812 0)"/>
      <use xlink:href="#DejaVuSans-446" transform="translate(1382.03125 0)"/>
      <use xlink:href="#DejaVuSans-438" transform="translate(1450.097656 0)"/>
      <use xlink:href="#DejaVuSans-43a" transform="translate(1515.087891 0)"/>
      <use xlink:href="#DejaVuSans-43b" transform="translate(1575.488281 0)"/>
      <use xlink:href="#DejaVuSans-438" transform="translate(1639.404297 0)"/>
      <use xlink:href="#DejaVuSans-440" transform="translate(1704.394531 0)"/>
      <use xlink:href="#DejaVuSans-43e" transform="translate(1767.871094 0)"/>
      <use xlink:href="#DejaVuSans-432" transform="translate(1829.052734 0)"/>
      <use xlink:href="#DejaVuSans-430" transform="translate(1887.988281 0)"/>
      <use xlink:href="#DejaVuSans-43d" transform="translate(1949.267578 0)"/>
      <use xlink:href="#DejaVuSans-438" transform="translate(2014.648438 0)"/>
      <use xlink:href="#DejaVuSans-435" transform="translate(2079.638672 0)"/>
     </g>
    </g>
   </g>
   <g id="LineCollection_1">
    <path d="M 108.650349 225.625089 
L 108.650349 178.660029 
" clip-path="url(#pe687f84b93)" style="fill: none; stroke: #000000; stroke-width: 1.5"/>
    <path d="M 281.324196 331.926477 
L 281.324196 41.406023 
" clip-path="url(#pe687f84b93)" style="fill: none; stroke: #000000; stroke-width: 1.5"/>
    <path d="M 453.998043 236.211933 
L 453.998043 214.759194 
" clip-path="url(#pe687f84b93)" style="fill: none; stroke: #000000; stroke-width: 1.5"/>
   </g>
   <g id="line2d_13">
    <defs>
     <path id="m3f974e76c8" d="M 4 0 
L -4 -0 
" style="stroke: #000000"/>
    </defs>
    <g clip-path="url(#pe687f84b93)">
     <use xlink:href="#m3f974e76c8" x="108.650349" y="225.625089" style="fill: #1f77b4; stroke: #000000"/>
     <use xlink:href="#m3f974e76c8" x="281.324196" y="331.926477" style="fill: #1f77b4; stroke: #000000"/>
     <use xlink:href="#m3f974e76c8" x="453.998043" y="236.211933" style="fill: #1f77b4; stroke: #000000"/>
    </g>
   </g>
   <g id="line2d_14">
    <g clip-path="url(#pe687f84b93)">
     <use xlink:href="#m3f974e76c8" x="108.650349" y="178.660029" style="fill: #1f77b4; stroke: #000000"/>
     <use xlink:href="#m3f974e76c8" x="281.324196" y="41.406023" style="fill: #1f77b4; stroke: #000000"/>
     <use xlink:href="#m3f974e76c8" x="453.998043" y="214.759194" style="fill: #1f77b4; stroke: #000000"/>
    </g>
   </g>
   <g id="LineCollection_2">
    <path d="M 167.359457 214.274434 
L 167.359457 200.80811 
" clip-path="url(#pe687f84b93)" style="fill: none; stroke: #000000; stroke-width: 1.5"/>
    <path d="M 340.033304 307.379492 
L 340.033304 112.639017 
" clip-path="url(#pe687f84b93)" style="fill: none; stroke: #000000; stroke-width: 1.5"/>
    <path d="M 512.707151 218.673905 
L 512.707151 198.876621 
" clip-path="url(#pe687f84b93)" style="fill: none; stroke: #000000; stroke-width: 1.5"/>
   </g>
   <g id="line2d_15">
    <g clip-path="url(#pe687f84b93)">
     <use xlink:href="#m3f974e76c8" x="167.359457" y="214.274434" style="fill: #1f77b4; stroke: #000000"/>
     <use xlink:href="#m3f974e76c8" x="340.033304" y="307.379492" style="fill: #1f77b4; stroke: #000000"/>
     <use xlink:href="#m3f974e76c8" x="512.707151" y="218.673905" style="fill: #1f77b4; stroke: #000000"/>
    </g>
   </g>
   <g id="line2d_16">
    <g clip-path="url(#pe687f84b93)">
     <use xlink:href="#m3f974e76c8" x="167.359457" y="200.80811" style="fill: #1f77b4; stroke: #000000"/>
     <use xlink:href="#m3f974e76c8" x="340.033304" y="112.639017" style="fill: #1f77b4; stroke: #000000"/>
     <use xlink:href="#m3f974e76c8" x="512.707151" y="198.876621" style="fill: #1f77b4; stroke: #000000"/>
    </g>
   </g>
   <g id="line2d_17">
    <path d="M 56.1575 213.711229 
L 565.2 213.711229 
" clip-path="url(#pe687f84b93)" style="fill: none; stroke: #000000; stroke-linecap: square"/>
   </g>
   <g id="patch_9">
    <path d="M 56.1575 346.4525 
L 56.1575 26.88 
" style="fill: none; stroke: #000000; stroke-width: 0.8; stroke-linejoin: miter; stroke-linecap: square"/>
   </g>
   <g id="patch_10">
    <path d="M 565.2 346.4525 
L 565.2 26.88 
" style="fill: none; stroke: #000000; stroke-width: 0.8; stroke-linejoin: miter; stroke-linecap: square"/>
   </g>
   <g id="patch_11">
    <path d="M 56.1575 346.4525 
L 565.2 346.4525 
" style="fill: none; stroke: #000000; stroke-width: 0.8; stroke-linejoin: miter; stroke-linecap: square"/>
   </g>
   <g id="patch_12">
    <path d="M 56.1575 26.88 
L 565.2 26.88 
" style="fill: none; stroke: #000000; stroke-width: 0.8; stroke-linejoin: miter; stroke-linecap: square"/>
   </g>
   <g id="text_14">
    <!-- Итоговые эффекты DBR на втором поколении -->
    <g transform="translate(164.246875 20.88) scale(0.12 -0.12)">
     <defs>
      <path id="DejaVuSans-418" d="M 4159 4666 
L 4159 0 
L 3547 0 
L 3547 3903 
L 1478 0 
L 628 0 
L 628 4666 
L 1241 4666 
L 1241 763 
L 3309 4666 
L 4159 4666 
z
" transform="scale(0.015625)"/>
      <path id="DejaVuSans-44d" d="M 353 666 
Q 847 397 1338 397 
Q 1797 397 2125 664 
Q 2453 931 2513 1613 
L 738 1613 
L 738 2072 
L 2494 2072 
Q 2456 2400 2207 2748 
Q 1959 3097 1338 3097 
Q 856 3097 353 2828 
L 353 3366 
Q 844 3584 1363 3584 
Q 2181 3584 2651 3089 
Q 3122 2594 3122 1747 
Q 3122 903 2664 406 
Q 2206 -91 1403 -91 
Q 813 -91 353 134 
L 353 666 
z
" transform="scale(0.015625)"/>
      <path id="DejaVuSans-444" d="M 947 1747 
Q 947 1013 1173 702 
Q 1400 391 1784 391 
Q 2091 391 2447 916 
L 2447 2578 
Q 2091 3103 1784 3103 
Q 1400 3103 1173 2792 
Q 947 2481 947 1747 
z
M 2447 -1331 
L 2447 447 
Q 2269 153 2064 31 
Q 1859 -91 1600 -91 
Q 1078 -91 714 392 
Q 350 875 350 1734 
Q 350 2594 714 3089 
Q 1078 3584 1600 3584 
Q 1859 3584 2064 3465 
Q 2269 3347 2447 3053 
L 2447 4666 
L 3025 4666 
L 3025 3053 
Q 3203 3347 3408 3465 
Q 3613 3584 3872 3584 
Q 4394 3584 4758 3089 
Q 5122 2594 5122 1734 
Q 5122 875 4758 392 
Q 4394 -91 3872 -91 
Q 3613 -91 3408 31 
Q 3203 153 3025 447 
L 3025 -1331 
L 2447 -1331 
z
M 4525 1747 
Q 4525 2481 4298 2792 
Q 4072 3103 3688 3103 
Q 3381 3103 3025 2578 
L 3025 916 
Q 3381 391 3688 391 
Q 4072 391 4298 702 
Q 4525 1013 4525 1747 
z
" transform="scale(0.015625)"/>
      <path id="DejaVuSans-43c" d="M 581 3500 
L 1422 3500 
L 2416 1156 
L 3413 3500 
L 4247 3500 
L 4247 0 
L 3669 0 
L 3669 2950 
L 2703 672 
L 2128 672 
L 1159 2950 
L 1159 0 
L 581 0 
L 581 3500 
z
" transform="scale(0.015625)"/>
      <path id="DejaVuSans-43f" d="M 3603 3500 
L 3603 0 
L 3025 0 
L 3025 3041 
L 1159 3041 
L 1159 0 
L 581 0 
L 581 3500 
L 3603 3500 
z
" transform="scale(0.015625)"/>
     </defs>
     <use xlink:href="#DejaVuSans-418"/>
     <use xlink:href="#DejaVuSans-442" transform="translate(74.804688 0)"/>
     <use xlink:href="#DejaVuSans-43e" transform="translate(133.056641 0)"/>
     <use xlink:href="#DejaVuSans-433" transform="translate(194.238281 0)"/>
     <use xlink:href="#DejaVuSans-43e" transform="translate(246.777344 0)"/>
     <use xlink:href="#DejaVuSans-432" transform="translate(307.958984 0)"/>
     <use xlink:href="#DejaVuSans-44b" transform="translate(366.894531 0)"/>
     <use xlink:href="#DejaVuSans-435" transform="translate(445.849609 0)"/>
     <use xlink:href="#DejaVuSans-20" transform="translate(507.373047 0)"/>
     <use xlink:href="#DejaVuSans-44d" transform="translate(539.160156 0)"/>
     <use xlink:href="#DejaVuSans-444" transform="translate(594.042969 0)"/>
     <use xlink:href="#DejaVuSans-444" transform="translate(679.541016 0)"/>
     <use xlink:href="#DejaVuSans-435" transform="translate(765.039062 0)"/>
     <use xlink:href="#DejaVuSans-43a" transform="translate(826.5625 0)"/>
     <use xlink:href="#DejaVuSans-442" transform="translate(886.962891 0)"/>
     <use xlink:href="#DejaVuSans-44b" transform="translate(945.214844 0)"/>
     <use xlink:href="#DejaVuSans-20" transform="translate(1024.169922 0)"/>
     <use xlink:href="#DejaVuSans-44" transform="translate(1055.957031 0)"/>
     <use xlink:href="#DejaVuSans-42" transform="translate(1132.958984 0)"/>
     <use xlink:href="#DejaVuSans-52" transform="translate(1201.5625 0)"/>
     <use xlink:href="#DejaVuSans-20" transform="translate(1271.044922 0)"/>
     <use xlink:href="#DejaVuSans-43d" transform="translate(1302.832031 0)"/>
     <use xlink:href="#DejaVuSans-430" transform="translate(1368.212891 0)"/>
     <use xlink:href="#DejaVuSans-20" transform="translate(1429.492188 0)"/>
     <use xlink:href="#DejaVuSans-432" transform="translate(1461.279297 0)"/>
     <use xlink:href="#DejaVuSans-442" transform="translate(1520.214844 0)"/>
     <use xlink:href="#DejaVuSans-43e" transform="translate(1578.466797 0)"/>
     <use xlink:href="#DejaVuSans-440" transform="translate(1639.648438 0)"/>
     <use xlink:href="#DejaVuSans-43e" transform="translate(1703.125 0)"/>
     <use xlink:href="#DejaVuSans-43c" transform="translate(1764.306641 0)"/>
     <use xlink:href="#DejaVuSans-20" transform="translate(1839.746094 0)"/>
     <use xlink:href="#DejaVuSans-43f" transform="translate(1871.533203 0)"/>
     <use xlink:href="#DejaVuSans-43e" transform="translate(1936.914062 0)"/>
     <use xlink:href="#DejaVuSans-43a" transform="translate(1998.095703 0)"/>
     <use xlink:href="#DejaVuSans-43e" transform="translate(2058.496094 0)"/>
     <use xlink:href="#DejaVuSans-43b" transform="translate(2119.677734 0)"/>
     <use xlink:href="#DejaVuSans-435" transform="translate(2183.59375 0)"/>
     <use xlink:href="#DejaVuSans-43d" transform="translate(2245.117188 0)"/>
     <use xlink:href="#DejaVuSans-438" transform="translate(2310.498047 0)"/>
     <use xlink:href="#DejaVuSans-438" transform="translate(2375.488281 0)"/>
    </g>
   </g>
   <g id="legend_1">
    <g id="patch_13">
     <path d="M 402.674062 60.500625 
L 558.9 60.500625 
Q 560.7 60.500625 560.7 58.700625 
L 560.7 33.18 
Q 560.7 31.38 558.9 31.38 
L 402.674062 31.38 
Q 400.874062 31.38 400.874062 33.18 
L 400.874062 58.700625 
Q 400.874062 60.500625 402.674062 60.500625 
z
" style="fill: #ffffff; opacity: 0.8; stroke: #cccccc; stroke-linejoin: miter"/>
    </g>
    <g id="patch_14">
     <path d="M 404.474062 41.818594 
L 422.474062 41.818594 
L 422.474062 35.518594 
L 404.474062 35.518594 
z
" style="fill: #4e79a7"/>
    </g>
    <g id="text_15">
     <!-- Серия 211–213 -->
     <g transform="translate(429.674062 41.818594) scale(0.09 -0.09)">
      <defs>
       <path id="DejaVuSans-421" d="M 4122 4306 
L 4122 3641 
Q 3803 3938 3442 4084 
Q 3081 4231 2675 4231 
Q 1875 4231 1450 3742 
Q 1025 3253 1025 2328 
Q 1025 1406 1450 917 
Q 1875 428 2675 428 
Q 3081 428 3442 575 
Q 3803 722 4122 1019 
L 4122 359 
Q 3791 134 3420 21 
Q 3050 -91 2638 -91 
Q 1578 -91 968 557 
Q 359 1206 359 2328 
Q 359 3453 968 4101 
Q 1578 4750 2638 4750 
Q 3056 4750 3426 4639 
Q 3797 4528 4122 4306 
z
" transform="scale(0.015625)"/>
       <path id="DejaVuSans-2013" d="M 313 1978 
L 2888 1978 
L 2888 1528 
L 313 1528 
L 313 1978 
z
" transform="scale(0.015625)"/>
       <path id="DejaVuSans-33" d="M 2597 2516 
Q 3050 2419 3304 2112 
Q 3559 1806 3559 1356 
Q 3559 666 3084 287 
Q 2609 -91 1734 -91 
Q 1441 -91 1130 -33 
Q 819 25 488 141 
L 488 750 
Q 750 597 1062 519 
Q 1375 441 1716 441 
Q 2309 441 2620 675 
Q 2931 909 2931 1356 
Q 2931 1769 2642 2001 
Q 2353 2234 1838 2234 
L 1294 2234 
L 1294 2753 
L 1863 2753 
Q 2328 2753 2575 2939 
Q 2822 3125 2822 3475 
Q 2822 3834 2567 4026 
Q 2313 4219 1838 4219 
Q 1578 4219 1281 4162 
Q 984 4106 628 3988 
L 628 4550 
Q 988 4650 1302 4700 
Q 1616 4750 1894 4750 
Q 2613 4750 3031 4423 
Q 3450 4097 3450 3541 
Q 3450 3153 3228 2886 
Q 3006 2619 2597 2516 
z
" transform="scale(0.015625)"/>
      </defs>
      <use xlink:href="#DejaVuSans-421"/>
      <use xlink:href="#DejaVuSans-435" transform="translate(69.824219 0)"/>
      <use xlink:href="#DejaVuSans-440" transform="translate(131.347656 0)"/>
      <use xlink:href="#DejaVuSans-438" transform="translate(194.824219 0)"/>
      <use xlink:href="#DejaVuSans-44f" transform="translate(259.814453 0)"/>
      <use xlink:href="#DejaVuSans-20" transform="translate(319.970703 0)"/>
      <use xlink:href="#DejaVuSans-32" transform="translate(351.757812 0)"/>
      <use xlink:href="#DejaVuSans-31" transform="translate(415.380859 0)"/>
      <use xlink:href="#DejaVuSans-31" transform="translate(479.003906 0)"/>
      <use xlink:href="#DejaVuSans-2013" transform="translate(542.626953 0)"/>
      <use xlink:href="#DejaVuSans-32" transform="translate(592.626953 0)"/>
      <use xlink:href="#DejaVuSans-31" transform="translate(656.25 0)"/>
      <use xlink:href="#DejaVuSans-33" transform="translate(719.873047 0)"/>
     </g>
    </g>
    <g id="patch_15">
     <path d="M 404.474062 55.028906 
L 422.474062 55.028906 
L 422.474062 48.728906 
L 404.474062 48.728906 
z
" style="fill: #f28e2b"/>
    </g>
    <g id="text_16">
     <!-- Чистая DBR-серия 221–223 -->
     <g transform="translate(429.674062 55.028906) scale(0.09 -0.09)">
      <defs>
       <path id="DejaVuSans-427" d="M 3125 0 
L 3125 1913 
L 1822 1913 
Q 1241 1913 894 2277 
Q 547 2641 547 3384 
L 547 4666 
L 1175 4666 
L 1175 3434 
Q 1175 2938 1369 2691 
Q 1563 2444 1950 2444 
L 3125 2444 
L 3125 4666 
L 3759 4666 
L 3759 0 
L 3125 0 
z
" transform="scale(0.015625)"/>
       <path id="DejaVuSans-2d" d="M 313 2009 
L 1997 2009 
L 1997 1497 
L 313 1497 
L 313 2009 
z
" transform="scale(0.015625)"/>
      </defs>
      <use xlink:href="#DejaVuSans-427"/>
      <use xlink:href="#DejaVuSans-438" transform="translate(68.554688 0)"/>
      <use xlink:href="#DejaVuSans-441" transform="translate(133.544922 0)"/>
      <use xlink:href="#DejaVuSans-442" transform="translate(188.525391 0)"/>
      <use xlink:href="#DejaVuSans-430" transform="translate(246.777344 0)"/>
      <use xlink:href="#DejaVuSans-44f" transform="translate(308.056641 0)"/>
      <use xlink:href="#DejaVuSans-20" transform="translate(368.212891 0)"/>
      <use xlink:href="#DejaVuSans-44" transform="translate(400 0)"/>
      <use xlink:href="#DejaVuSans-42" transform="translate(477.001953 0)"/>
      <use xlink:href="#DejaVuSans-52" transform="translate(545.605469 0)"/>
      <use xlink:href="#DejaVuSans-2d" transform="translate(611.087891 0)"/>
      <use xlink:href="#DejaVuSans-441" transform="translate(647.171875 0)"/>
      <use xlink:href="#DejaVuSans-435" transform="translate(702.152344 0)"/>
      <use xlink:href="#DejaVuSans-440" transform="translate(763.675781 0)"/>
      <use xlink:href="#DejaVuSans-438" transform="translate(827.152344 0)"/>
      <use xlink:href="#DejaVuSans-44f" transform="translate(892.142578 0)"/>
      <use xlink:href="#DejaVuSans-20" transform="translate(952.298828 0)"/>
      <use xlink:href="#DejaVuSans-32" transform="translate(984.085938 0)"/>
      <use xlink:href="#DejaVuSans-32" transform="translate(1047.708984 0)"/>
      <use xlink:href="#DejaVuSans-31" transform="translate(1111.332031 0)"/>
      <use xlink:href="#DejaVuSans-2013" transform="translate(1174.955078 0)"/>
      <use xlink:href="#DejaVuSans-32" transform="translate(1224.955078 0)"/>
      <use xlink:href="#DejaVuSans-32" transform="translate(1288.578125 0)"/>
      <use xlink:href="#DejaVuSans-33" transform="translate(1352.201172 0)"/>
     </g>
    </g>
   </g>
  </g>
 </g>
 <defs>
  <clipPath id="pe687f84b93">
   <rect x="56.1575" y="26.88" width="509.0425" height="319.5725"/>
  </clipPath>
 </defs>
</svg>
