<?xml version="1.0" encoding="utf-8" standalone="no"?>
<!DOCTYPE svg PUBLIC "-//W3C//DTD SVG 1.1//EN"
  "http://www.w3.org/Graphics/SVG/1.1/DTD/svg11.dtd">
<svg xmlns:xlink="http://www.w3.org/1999/xlink" width="1144.43375pt" height="369.99625pt" viewBox="0 0 1144.43375 369.99625" xmlns="http://www.w3.org/2000/svg" version="1.1">
 <metadata>
  <rdf:RDF xmlns:dc="http://purl.org/dc/elements/1.1/" xmlns:cc="http://creativecommons.org/ns#" xmlns:rdf="http://www.w3.org/1999/02/22-rdf-syntax-ns#">
   <cc:Work>
    <dc:type rdf:resource="http://purl.org/dc/dcmitype/StillImage"/>
    <dc:date>2026-05-05T21:01:18.249749</dc:date>
    <dc:format>image/svg+xml</dc:format>
    <dc:creator>
     <cc:Agent>
      <dc:title>Matplotlib v3.10.8, https://matplotlib.org/</dc:title>
     </cc:Agent>
    </dc:creator>
   </cc:Work>
  </rdf:RDF>
 </metadata>
 <defs>
  <style type="text/css">*{stroke-linejoin: round; stroke-linecap: butt}</style>
 </defs>
 <g id="figure_1">
  <g id="patch_1">
   <path d="M 0 369.99625 
L 1144.43375 369.99625 
L 1144.43375 0 
L 0 0 
z
" style="fill: #ffffff"/>
  </g>
  <g id="axes_1">
   <g id="patch_2">
    <path d="M 50.14375 332.44 
L 379.830969 332.44 
L 379.830969 76.128 
L 50.14375 76.128 
z
" style="fill: #ffffff"/>
   </g>
   <g id="matplotlib.axis_1">
    <g id="xtick_1">
     <g id="line2d_1">
      <path d="M 65.129533 332.44 
L 65.129533 76.128 
" clip-path="url(#p049de7b362)" style="fill: none; stroke: #b0b0b0; stroke-opacity: 0.25; stroke-width: 0.8; stroke-linecap: square"/>
     </g>
     <g id="line2d_2">
      <defs>
       <path id="m71d22988fe" d="M 0 0 
L 0 3.5 
" style="stroke: #000000; stroke-width: 0.8"/>
      </defs>
      <g>
       <use xlink:href="#m71d22988fe" x="65.129533" y="332.44" style="stroke: #000000; stroke-width: 0.8"/>
      </g>
     </g>
     <g id="text_1">
      <!-- Gen0 -->
      <g transform="translate(51.828751 347.038437) scale(0.1 -0.1)">
       <defs>
        <path id="DejaVuSans-47" d="M 3809 666 
L 3809 1919 
L 2778 1919 
L 2778 2438 
L 4434 2438 
L 4434 434 
Q 4069 175 3628 42 
Q 3188 -91 2688 -91 
Q 1594 -91 976 548 
Q 359 1188 359 2328 
Q 359 3472 976 4111 
Q 1594 4750 2688 4750 
Q 3144 4750 3555 4637 
Q 3966 4525 4313 4306 
L 4313 3634 
Q 3963 3931 3569 4081 
Q 3175 4231 2741 4231 
Q 1884 4231 1454 3753 
Q 1025 3275 1025 2328 
Q 1025 1384 1454 906 
Q 1884 428 2741 428 
Q 3075 428 3337 486 
Q 3600 544 3809 666 
z
" transform="scale(0.015625)"/>
        <path id="DejaVuSans-65" d="M 3597 1894 
L 3597 1613 
L 953 1613 
Q 991 1019 1311 708 
Q 1631 397 2203 397 
Q 2534 397 2845 478 
Q 3156 559 3463 722 
L 3463 178 
Q 3153 47 2828 -22 
Q 2503 -91 2169 -91 
Q 1331 -91 842 396 
Q 353 884 353 1716 
Q 353 2575 817 3079 
Q 1281 3584 2069 3584 
Q 2775 3584 3186 3129 
Q 3597 2675 3597 1894 
z
M 3022 2063 
Q 3016 2534 2758 2815 
Q 2500 3097 2075 3097 
Q 1594 3097 1305 2825 
Q 1016 2553 972 2059 
L 3022 2063 
z
" transform="scale(0.015625)"/>
        <path id="DejaVuSans-6e" d="M 3513 2113 
L 3513 0 
L 2938 0 
L 2938 2094 
Q 2938 2591 2744 2837 
Q 2550 3084 2163 3084 
Q 1697 3084 1428 2787 
Q 1159 2491 1159 1978 
L 1159 0 
L 581 0 
L 581 3500 
L 1159 3500 
L 1159 2956 
Q 1366 3272 1645 3428 
Q 1925 3584 2291 3584 
Q 2894 3584 3203 3211 
Q 3513 2838 3513 2113 
z
" transform="scale(0.015625)"/>
        <path id="DejaVuSans-30" d="M 2034 4250 
Q 1547 4250 1301 3770 
Q 1056 3291 1056 2328 
Q 1056 1369 1301 889 
Q 1547 409 2034 409 
Q 2525 409 2770 889 
Q 3016 1369 3016 2328 
Q 3016 3291 2770 3770 
Q 2525 4250 2034 4250 
z
M 2034 4750 
Q 2819 4750 3233 4129 
Q 3647 3509 3647 2328 
Q 3647 1150 3233 529 
Q 2819 -91 2034 -91 
Q 1250 -91 836 529 
Q 422 1150 422 2328 
Q 422 3509 836 4129 
Q 1250 4750 2034 4750 
z
" transform="scale(0.015625)"/>
       </defs>
       <use xlink:href="#DejaVuSans-47"/>
       <use xlink:href="#DejaVuSans-65" transform="translate(77.490234 0)"/>
       <use xlink:href="#DejaVuSans-6e" transform="translate(139.013672 0)"/>
       <use xlink:href="#DejaVuSans-30" transform="translate(202.392578 0)"/>
      </g>
     </g>
    </g>
    <g id="xtick_2">
     <g id="line2d_3">
      <path d="M 214.98736 332.44 
L 214.98736 76.128 
" clip-path="url(#p049de7b362)" style="fill: none; stroke: #b0b0b0; stroke-opacity: 0.25; stroke-width: 0.8; stroke-linecap: square"/>
     </g>
     <g id="line2d_4">
      <g>
       <use xlink:href="#m71d22988fe" x="214.98736" y="332.44" style="stroke: #000000; stroke-width: 0.8"/>
      </g>
     </g>
     <g id="text_2">
      <!-- Gen1 -->
      <g transform="translate(201.686578 347.038437) scale(0.1 -0.1)">
       <defs>
        <path id="DejaVuSans-31" d="M 794 531 
L 1825 531 
L 1825 4091 
L 703 3866 
L 703 4441 
L 1819 4666 
L 2450 4666 
L 2450 531 
L 3481 531 
L 3481 0 
L 794 0 
L 794 531 
z
" transform="scale(0.015625)"/>
       </defs>
       <use xlink:href="#DejaVuSans-47"/>
       <use xlink:href="#DejaVuSans-65" transform="translate(77.490234 0)"/>
       <use xlink:href="#DejaVuSans-6e" transform="translate(139.013672 0)"/>
       <use xlink:href="#DejaVuSans-31" transform="translate(202.392578 0)"/>
      </g>
     </g>
    </g>
    <g id="xtick_3">
     <g id="line2d_5">
      <path d="M 364.845187 332.44 
L 364.845187 76.128 
" clip-path="url(#p049de7b362)" style="fill: none; stroke: #b0b0b0; stroke-opacity: 0.25; stroke-width: 0.8; stroke-linecap: square"/>
     </g>
     <g id="line2d_6">
      <g>
       <use xlink:href="#m71d22988fe" x="364.845187" y="332.44" style="stroke: #000000; stroke-width: 0.8"/>
      </g>
     </g>
     <g id="text_3">
      <!-- Gen2 -->
      <g transform="translate(351.544405 347.038437) scale(0.1 -0.1)">
       <defs>
        <path id="DejaVuSans-32" d="M 1228 531 
L 3431 531 
L 3431 0 
L 469 0 
L 469 531 
Q 828 903 1448 1529 
Q 2069 2156 2228 2338 
Q 2531 2678 2651 2914 
Q 2772 3150 2772 3378 
Q 2772 3750 2511 3984 
Q 2250 4219 1831 4219 
Q 1534 4219 1204 4116 
Q 875 4013 500 3803 
L 500 4441 
Q 881 4594 1212 4672 
Q 1544 4750 1819 4750 
Q 2544 4750 2975 4387 
Q 3406 4025 3406 3419 
Q 3406 3131 3298 2873 
Q 3191 2616 2906 2266 
Q 2828 2175 2409 1742 
Q 1991 1309 1228 531 
z
" transform="scale(0.015625)"/>
       </defs>
       <use xlink:href="#DejaVuSans-47"/>
       <use xlink:href="#DejaVuSans-65" transform="translate(77.490234 0)"/>
       <use xlink:href="#DejaVuSans-6e" transform="translate(139.013672 0)"/>
       <use xlink:href="#DejaVuSans-32" transform="translate(202.392578 0)"/>
      </g>
     </g>
    </g>
    <g id="text_4">
     <!-- Поколение -->
     <g transform="translate(186.220953 360.716562) scale(0.1 -0.1)">
      <defs>
       <path id="DejaVuSans-41f" d="M 4184 4666 
L 4184 0 
L 3553 0 
L 3553 4134 
L 1259 4134 
L 1259 0 
L 628 0 
L 628 4666 
L 4184 4666 
z
" transform="scale(0.015625)"/>
       <path id="DejaVuSans-43e" d="M 1959 3097 
Q 1497 3097 1228 2736 
Q 959 2375 959 1747 
Q 959 1119 1226 758 
Q 1494 397 1959 397 
Q 2419 397 2687 759 
Q 2956 1122 2956 1747 
Q 2956 2369 2687 2733 
Q 2419 3097 1959 3097 
z
M 1959 3584 
Q 2709 3584 3137 3096 
Q 3566 2609 3566 1747 
Q 3566 888 3137 398 
Q 2709 -91 1959 -91 
Q 1206 -91 779 398 
Q 353 888 353 1747 
Q 353 2609 779 3096 
Q 1206 3584 1959 3584 
z
" transform="scale(0.015625)"/>
       <path id="DejaVuSans-43a" d="M 581 3500 
L 1153 3500 
L 1153 1856 
L 2775 3500 
L 3481 3500 
L 2144 2147 
L 3653 0 
L 3009 0 
L 1769 1766 
L 1153 1141 
L 1153 0 
L 581 0 
L 581 3500 
z
" transform="scale(0.015625)"/>
       <path id="DejaVuSans-43b" d="M 238 0 
L 238 478 
Q 806 566 981 959 
Q 1194 1513 1194 2928 
L 1194 3500 
L 3559 3500 
L 3559 0 
L 2984 0 
L 2984 3041 
L 1769 3041 
L 1769 2694 
Q 1769 1344 1494 738 
Q 1200 91 238 0 
z
" transform="scale(0.015625)"/>
       <path id="DejaVuSans-435" d="M 3597 1894 
L 3597 1613 
L 953 1613 
Q 991 1019 1311 708 
Q 1631 397 2203 397 
Q 2534 397 2845 478 
Q 3156 559 3463 722 
L 3463 178 
Q 3153 47 2828 -22 
Q 2503 -91 2169 -91 
Q 1331 -91 842 396 
Q 353 884 353 1716 
Q 353 2575 817 3079 
Q 1281 3584 2069 3584 
Q 2775 3584 3186 3129 
Q 3597 2675 3597 1894 
z
M 3022 2063 
Q 3016 2534 2758 2815 
Q 2500 3097 2075 3097 
Q 1594 3097 1305 2825 
Q 1016 2553 972 2059 
L 3022 2063 
z
" transform="scale(0.015625)"/>
       <path id="DejaVuSans-43d" d="M 581 3500 
L 1159 3500 
L 1159 2072 
L 3025 2072 
L 3025 3500 
L 3603 3500 
L 3603 0 
L 3025 0 
L 3025 1613 
L 1159 1613 
L 1159 0 
L 581 0 
L 581 3500 
z
" transform="scale(0.015625)"/>
       <path id="DejaVuSans-438" d="M 3578 3500 
L 3578 0 
L 3006 0 
L 3006 2809 
L 1319 0 
L 581 0 
L 581 3500 
L 1153 3500 
L 1153 697 
L 2838 3500 
L 3578 3500 
z
" transform="scale(0.015625)"/>
      </defs>
      <use xlink:href="#DejaVuSans-41f"/>
      <use xlink:href="#DejaVuSans-43e" transform="translate(75.195312 0)"/>
      <use xlink:href="#DejaVuSans-43a" transform="translate(136.376953 0)"/>
      <use xlink:href="#DejaVuSans-43e" transform="translate(196.777344 0)"/>
      <use xlink:href="#DejaVuSans-43b" transform="translate(257.958984 0)"/>
      <use xlink:href="#DejaVuSans-435" transform="translate(321.875 0)"/>
      <use xlink:href="#DejaVuSans-43d" transform="translate(383.398438 0)"/>
      <use xlink:href="#DejaVuSans-438" transform="translate(448.779297 0)"/>
      <use xlink:href="#DejaVuSans-435" transform="translate(513.769531 0)"/>
     </g>
    </g>
   </g>
   <g id="matplotlib.axis_2">
    <g id="ytick_1">
     <g id="line2d_7">
      <path d="M 50.14375 332.44 
L 379.830969 332.44 
" clip-path="url(#p049de7b362)" style="fill: none; stroke: #b0b0b0; stroke-opacity: 0.25; stroke-width: 0.8; stroke-linecap: square"/>
     </g>
     <g id="line2d_8">
      <defs>
       <path id="m8e4cc34f45" d="M 0 0 
L -3.5 0 
" style="stroke: #000000; stroke-width: 0.8"/>
      </defs>
      <g>
       <use xlink:href="#m8e4cc34f45" x="50.14375" y="332.44" style="stroke: #000000; stroke-width: 0.8"/>
      </g>
     </g>
     <g id="text_5">
      <!-- 0.90 -->
      <g transform="translate(20.878125 336.239219) scale(0.1 -0.1)">
       <defs>
        <path id="DejaVuSans-2e" d="M 684 794 
L 1344 794 
L 1344 0 
L 684 0 
L 684 794 
z
" transform="scale(0.015625)"/>
        <path id="DejaVuSans-39" d="M 703 97 
L 703 672 
Q 941 559 1184 500 
Q 1428 441 1663 441 
Q 2288 441 2617 861 
Q 2947 1281 2994 2138 
Q 2813 1869 2534 1725 
Q 2256 1581 1919 1581 
Q 1219 1581 811 2004 
Q 403 2428 403 3163 
Q 403 3881 828 4315 
Q 1253 4750 1959 4750 
Q 2769 4750 3195 4129 
Q 3622 3509 3622 2328 
Q 3622 1225 3098 567 
Q 2575 -91 1691 -91 
Q 1453 -91 1209 -44 
Q 966 3 703 97 
z
M 1959 2075 
Q 2384 2075 2632 2365 
Q 2881 2656 2881 3163 
Q 2881 3666 2632 3958 
Q 2384 4250 1959 4250 
Q 1534 4250 1286 3958 
Q 1038 3666 1038 3163 
Q 1038 2656 1286 2365 
Q 1534 2075 1959 2075 
z
" transform="scale(0.015625)"/>
       </defs>
       <use xlink:href="#DejaVuSans-30"/>
       <use xlink:href="#DejaVuSans-2e" transform="translate(63.623047 0)"/>
       <use xlink:href="#DejaVuSans-39" transform="translate(95.410156 0)"/>
       <use xlink:href="#DejaVuSans-30" transform="translate(159.033203 0)"/>
      </g>
     </g>
    </g>
    <g id="ytick_2">
     <g id="line2d_9">
      <path d="M 50.14375 281.1776 
L 379.830969 281.1776 
" clip-path="url(#p049de7b362)" style="fill: none; stroke: #b0b0b0; stroke-opacity: 0.25; stroke-width: 0.8; stroke-linecap: square"/>
     </g>
     <g id="line2d_10">
      <g>
       <use xlink:href="#m8e4cc34f45" x="50.14375" y="281.1776" style="stroke: #000000; stroke-width: 0.8"/>
      </g>
     </g>
     <g id="text_6">
      <!-- 0.92 -->
      <g transform="translate(20.878125 284.976819) scale(0.1 -0.1)">
       <use xlink:href="#DejaVuSans-30"/>
       <use xlink:href="#DejaVuSans-2e" transform="translate(63.623047 0)"/>
       <use xlink:href="#DejaVuSans-39" transform="translate(95.410156 0)"/>
       <use xlink:href="#DejaVuSans-32" transform="translate(159.033203 0)"/>
      </g>
     </g>
    </g>
    <g id="ytick_3">
     <g id="line2d_11">
      <path d="M 50.14375 229.9152 
L 379.830969 229.9152 
" clip-path="url(#p049de7b362)" style="fill: none; stroke: #b0b0b0; stroke-opacity: 0.25; stroke-width: 0.8; stroke-linecap: square"/>
     </g>
     <g id="line2d_12">
      <g>
       <use xlink:href="#m8e4cc34f45" x="50.14375" y="229.9152" style="stroke: #000000; stroke-width: 0.8"/>
      </g>
     </g>
     <g id="text_7">
      <!-- 0.94 -->
      <g transform="translate(20.878125 233.714419) scale(0.1 -0.1)">
       <defs>
        <path id="DejaVuSans-34" d="M 2419 4116 
L 825 1625 
L 2419 1625 
L 2419 4116 
z
M 2253 4666 
L 3047 4666 
L 3047 1625 
L 3713 1625 
L 3713 1100 
L 3047 1100 
L 3047 0 
L 2419 0 
L 2419 1100 
L 313 1100 
L 313 1709 
L 2253 4666 
z
" transform="scale(0.015625)"/>
       </defs>
       <use xlink:href="#DejaVuSans-30"/>
       <use xlink:href="#DejaVuSans-2e" transform="translate(63.623047 0)"/>
       <use xlink:href="#DejaVuSans-39" transform="translate(95.410156 0)"/>
       <use xlink:href="#DejaVuSans-34" transform="translate(159.033203 0)"/>
      </g>
     </g>
    </g>
    <g id="ytick_4">
     <g id="line2d_13">
      <path d="M 50.14375 178.6528 
L 379.830969 178.6528 
" clip-path="url(#p049de7b362)" style="fill: none; stroke: #b0b0b0; stroke-opacity: 0.25; stroke-width: 0.8; stroke-linecap: square"/>
     </g>
     <g id="line2d_14">
      <g>
       <use xlink:href="#m8e4cc34f45" x="50.14375" y="178.6528" style="stroke: #000000; stroke-width: 0.8"/>
      </g>
     </g>
     <g id="text_8">
      <!-- 0.96 -->
      <g transform="translate(20.878125 182.452019) scale(0.1 -0.1)">
       <defs>
        <path id="DejaVuSans-36" d="M 2113 2584 
Q 1688 2584 1439 2293 
Q 1191 2003 1191 1497 
Q 1191 994 1439 701 
Q 1688 409 2113 409 
Q 2538 409 2786 701 
Q 3034 994 3034 1497 
Q 3034 2003 2786 2293 
Q 2538 2584 2113 2584 
z
M 3366 4563 
L 3366 3988 
Q 3128 4100 2886 4159 
Q 2644 4219 2406 4219 
Q 1781 4219 1451 3797 
Q 1122 3375 1075 2522 
Q 1259 2794 1537 2939 
Q 1816 3084 2150 3084 
Q 2853 3084 3261 2657 
Q 3669 2231 3669 1497 
Q 3669 778 3244 343 
Q 2819 -91 2113 -91 
Q 1303 -91 875 529 
Q 447 1150 447 2328 
Q 447 3434 972 4092 
Q 1497 4750 2381 4750 
Q 2619 4750 2861 4703 
Q 3103 4656 3366 4563 
z
" transform="scale(0.015625)"/>
       </defs>
       <use xlink:href="#DejaVuSans-30"/>
       <use xlink:href="#DejaVuSans-2e" transform="translate(63.623047 0)"/>
       <use xlink:href="#DejaVuSans-39" transform="translate(95.410156 0)"/>
       <use xlink:href="#DejaVuSans-36" transform="translate(159.033203 0)"/>
      </g>
     </g>
    </g>
    <g id="ytick_5">
     <g id="line2d_15">
      <path d="M 50.14375 127.3904 
L 379.830969 127.3904 
" clip-path="url(#p049de7b362)" style="fill: none; stroke: #b0b0b0; stroke-opacity: 0.25; stroke-width: 0.8; stroke-linecap: square"/>
     </g>
     <g id="line2d_16">
      <g>
       <use xlink:href="#m8e4cc34f45" x="50.14375" y="127.3904" style="stroke: #000000; stroke-width: 0.8"/>
      </g>
     </g>
     <g id="text_9">
      <!-- 0.98 -->
      <g transform="translate(20.878125 131.189619) scale(0.1 -0.1)">
       <defs>
        <path id="DejaVuSans-38" d="M 2034 2216 
Q 1584 2216 1326 1975 
Q 1069 1734 1069 1313 
Q 1069 891 1326 650 
Q 1584 409 2034 409 
Q 2484 409 2743 651 
Q 3003 894 3003 1313 
Q 3003 1734 2745 1975 
Q 2488 2216 2034 2216 
z
M 1403 2484 
Q 997 2584 770 2862 
Q 544 3141 544 3541 
Q 544 4100 942 4425 
Q 1341 4750 2034 4750 
Q 2731 4750 3128 4425 
Q 3525 4100 3525 3541 
Q 3525 3141 3298 2862 
Q 3072 2584 2669 2484 
Q 3125 2378 3379 2068 
Q 3634 1759 3634 1313 
Q 3634 634 3220 271 
Q 2806 -91 2034 -91 
Q 1263 -91 848 271 
Q 434 634 434 1313 
Q 434 1759 690 2068 
Q 947 2378 1403 2484 
z
M 1172 3481 
Q 1172 3119 1398 2916 
Q 1625 2713 2034 2713 
Q 2441 2713 2670 2916 
Q 2900 3119 2900 3481 
Q 2900 3844 2670 4047 
Q 2441 4250 2034 4250 
Q 1625 4250 1398 4047 
Q 1172 3844 1172 3481 
z
" transform="scale(0.015625)"/>
       </defs>
       <use xlink:href="#DejaVuSans-30"/>
       <use xlink:href="#DejaVuSans-2e" transform="translate(63.623047 0)"/>
       <use xlink:href="#DejaVuSans-39" transform="translate(95.410156 0)"/>
       <use xlink:href="#DejaVuSans-38" transform="translate(159.033203 0)"/>
      </g>
     </g>
    </g>
    <g id="ytick_6">
     <g id="line2d_17">
      <path d="M 50.14375 76.128 
L 379.830969 76.128 
" clip-path="url(#p049de7b362)" style="fill: none; stroke: #b0b0b0; stroke-opacity: 0.25; stroke-width: 0.8; stroke-linecap: square"/>
     </g>
     <g id="line2d_18">
      <g>
       <use xlink:href="#m8e4cc34f45" x="50.14375" y="76.128" style="stroke: #000000; stroke-width: 0.8"/>
      </g>
     </g>
     <g id="text_10">
      <!-- 1.00 -->
      <g transform="translate(20.878125 79.927219) scale(0.1 -0.1)">
       <use xlink:href="#DejaVuSans-31"/>
       <use xlink:href="#DejaVuSans-2e" transform="translate(63.623047 0)"/>
       <use xlink:href="#DejaVuSans-30" transform="translate(95.410156 0)"/>
       <use xlink:href="#DejaVuSans-30" transform="translate(159.033203 0)"/>
      </g>
     </g>
    </g>
    <g id="text_11">
     <!-- Покрытие -->
     <g transform="translate(14.798438 230.484) rotate(-90) scale(0.1 -0.1)">
      <defs>
       <path id="DejaVuSans-440" d="M 1159 525 
L 1159 -1331 
L 581 -1331 
L 581 3500 
L 1159 3500 
L 1159 2969 
Q 1341 3281 1617 3432 
Q 1894 3584 2278 3584 
Q 2916 3584 3314 3078 
Q 3713 2572 3713 1747 
Q 3713 922 3314 415 
Q 2916 -91 2278 -91 
Q 1894 -91 1617 61 
Q 1341 213 1159 525 
z
M 3116 1747 
Q 3116 2381 2855 2742 
Q 2594 3103 2138 3103 
Q 1681 3103 1420 2742 
Q 1159 2381 1159 1747 
Q 1159 1113 1420 752 
Q 1681 391 2138 391 
Q 2594 391 2855 752 
Q 3116 1113 3116 1747 
z
" transform="scale(0.015625)"/>
       <path id="DejaVuSans-44b" d="M 3907 3500 
L 4482 3500 
L 4482 0 
L 3907 0 
L 3907 3500 
z
M 4195 3584 
L 4195 3584 
z
M 2781 1038 
Q 2781 1319 2576 1466 
Q 2372 1613 1978 1613 
L 1159 1613 
L 1159 459 
L 1978 459 
Q 2372 459 2576 607 
Q 2781 756 2781 1038 
z
M 581 3500 
L 1159 3500 
L 1159 2072 
L 2003 2072 
Q 2672 2072 3033 1817 
Q 3394 1563 3394 1038 
Q 3394 513 3033 256 
Q 2672 0 2003 0 
L 581 0 
L 581 3500 
z
" transform="scale(0.015625)"/>
       <path id="DejaVuSans-442" d="M 188 3500 
L 3541 3500 
L 3541 3041 
L 2147 3041 
L 2147 0 
L 1581 0 
L 1581 3041 
L 188 3041 
L 188 3500 
z
" transform="scale(0.015625)"/>
      </defs>
      <use xlink:href="#DejaVuSans-41f"/>
      <use xlink:href="#DejaVuSans-43e" transform="translate(75.195312 0)"/>
      <use xlink:href="#DejaVuSans-43a" transform="translate(136.376953 0)"/>
      <use xlink:href="#DejaVuSans-440" transform="translate(196.777344 0)"/>
      <use xlink:href="#DejaVuSans-44b" transform="translate(260.253906 0)"/>
      <use xlink:href="#DejaVuSans-442" transform="translate(339.208984 0)"/>
      <use xlink:href="#DejaVuSans-438" transform="translate(397.460938 0)"/>
      <use xlink:href="#DejaVuSans-435" transform="translate(462.451172 0)"/>
     </g>
    </g>
   </g>
   <g id="line2d_19">
    <path d="M 65.129533 127.3904 
L 214.98736 144.477867 
L 364.845187 144.477867 
" clip-path="url(#p049de7b362)" style="fill: none; stroke: #4e79a7; stroke-width: 2.2; stroke-linecap: square"/>
    <defs>
     <path id="m8872e64748" d="M 0 3 
C 0.795609 3 1.55874 2.683901 2.12132 2.12132 
C 2.683901 1.55874 3 0.795609 3 0 
C 3 -0.795609 2.683901 -1.55874 2.12132 -2.12132 
C 1.55874 -2.683901 0.795609 -3 0 -3 
C -0.795609 -3 -1.55874 -2.683901 -2.12132 -2.12132 
C -2.683901 -1.55874 -3 -0.795609 -3 0 
C -3 0.795609 -2.683901 1.55874 -2.12132 2.12132 
C -1.55874 2.683901 -0.795609 3 0 3 
z
" style="stroke: #4e79a7"/>
    </defs>
    <g clip-path="url(#p049de7b362)">
     <use xlink:href="#m8872e64748" x="65.129533" y="127.3904" style="fill: #4e79a7; stroke: #4e79a7"/>
     <use xlink:href="#m8872e64748" x="214.98736" y="144.477867" style="fill: #4e79a7; stroke: #4e79a7"/>
     <use xlink:href="#m8872e64748" x="364.845187" y="144.477867" style="fill: #4e79a7; stroke: #4e79a7"/>
    </g>
   </g>
   <g id="line2d_20">
    <path d="M 65.129533 178.6528 
L 214.98736 144.477867 
L 364.845187 170.109067 
" clip-path="url(#p049de7b362)" style="fill: none; stroke: #f28e2b; stroke-width: 2.2; stroke-linecap: square"/>
    <defs>
     <path id="mb8a76a6b4a" d="M 0 3 
C 0.795609 3 1.55874 2.683901 2.12132 2.12132 
C 2.683901 1.55874 3 0.795609 3 0 
C 3 -0.795609 2.683901 -1.55874 2.12132 -2.12132 
C 1.55874 -2.683901 0.795609 -3 0 -3 
C -0.795609 -3 -1.55874 -2.683901 -2.12132 -2.12132 
C -2.683901 -1.55874 -3 -0.795609 -3 0 
C -3 0.795609 -2.683901 1.55874 -2.12132 2.12132 
C -1.55874 2.683901 -0.795609 3 0 3 
z
" style="stroke: #f28e2b"/>
    </defs>
    <g clip-path="url(#p049de7b362)">
     <use xlink:href="#mb8a76a6b4a" x="65.129533" y="178.6528" style="fill: #f28e2b; stroke: #f28e2b"/>
     <use xlink:href="#mb8a76a6b4a" x="214.98736" y="144.477867" style="fill: #f28e2b; stroke: #f28e2b"/>
     <use xlink:href="#mb8a76a6b4a" x="364.845187" y="170.109067" style="fill: #f28e2b; stroke: #f28e2b"/>
    </g>
   </g>
   <g id="patch_3">
    <path d="M 50.14375 332.44 
L 50.14375 76.128 
" style="fill: none; stroke: #000000; stroke-width: 0.8; stroke-linejoin: miter; stroke-linecap: square"/>
   </g>
   <g id="patch_4">
    <path d="M 379.830969 332.44 
L 379.830969 76.128 
" style="fill: none; stroke: #000000; stroke-width: 0.8; stroke-linejoin: miter; stroke-linecap: square"/>
   </g>
   <g id="patch_5">
    <path d="M 50.14375 332.44 
L 379.830969 332.44 
" style="fill: none; stroke: #000000; stroke-width: 0.8; stroke-linejoin: miter; stroke-linecap: square"/>
   </g>
   <g id="patch_6">
    <path d="M 50.14375 76.128 
L 379.830969 76.128 
" style="fill: none; stroke: #000000; stroke-width: 0.8; stroke-linejoin: miter; stroke-linecap: square"/>
   </g>
   <g id="text_12">
    <!-- A. Покрытие DBR по поколениям -->
    <g transform="translate(119.794391 70.128) scale(0.11 -0.11)">
     <defs>
      <path id="DejaVuSans-41" d="M 2188 4044 
L 1331 1722 
L 3047 1722 
L 2188 4044 
z
M 1831 4666 
L 2547 4666 
L 4325 0 
L 3669 0 
L 3244 1197 
L 1141 1197 
L 716 0 
L 50 0 
L 1831 4666 
z
" transform="scale(0.015625)"/>
      <path id="DejaVuSans-20" transform="scale(0.015625)"/>
      <path id="DejaVuSans-44" d="M 1259 4147 
L 1259 519 
L 2022 519 
Q 2988 519 3436 956 
Q 3884 1394 3884 2338 
Q 3884 3275 3436 3711 
Q 2988 4147 2022 4147 
L 1259 4147 
z
M 628 4666 
L 1925 4666 
Q 3281 4666 3915 4102 
Q 4550 3538 4550 2338 
Q 4550 1131 3912 565 
Q 3275 0 1925 0 
L 628 0 
L 628 4666 
z
" transform="scale(0.015625)"/>
      <path id="DejaVuSans-42" d="M 1259 2228 
L 1259 519 
L 2272 519 
Q 2781 519 3026 730 
Q 3272 941 3272 1375 
Q 3272 1813 3026 2020 
Q 2781 2228 2272 2228 
L 1259 2228 
z
M 1259 4147 
L 1259 2741 
L 2194 2741 
Q 2656 2741 2882 2914 
Q 3109 3088 3109 3444 
Q 3109 3797 2882 3972 
Q 2656 4147 2194 4147 
L 1259 4147 
z
M 628 4666 
L 2241 4666 
Q 2963 4666 3353 4366 
Q 3744 4066 3744 3513 
Q 3744 3084 3544 2831 
Q 3344 2578 2956 2516 
Q 3422 2416 3680 2098 
Q 3938 1781 3938 1306 
Q 3938 681 3513 340 
Q 3088 0 2303 0 
L 628 0 
L 628 4666 
z
" transform="scale(0.015625)"/>
      <path id="DejaVuSans-52" d="M 2841 2188 
Q 3044 2119 3236 1894 
Q 3428 1669 3622 1275 
L 4263 0 
L 3584 0 
L 2988 1197 
Q 2756 1666 2539 1819 
Q 2322 1972 1947 1972 
L 1259 1972 
L 1259 0 
L 628 0 
L 628 4666 
L 2053 4666 
Q 2853 4666 3247 4331 
Q 3641 3997 3641 3322 
Q 3641 2881 3436 2590 
Q 3231 2300 2841 2188 
z
M 1259 4147 
L 1259 2491 
L 2053 2491 
Q 2509 2491 2742 2702 
Q 2975 2913 2975 3322 
Q 2975 3731 2742 3939 
Q 2509 4147 2053 4147 
L 1259 4147 
z
" transform="scale(0.015625)"/>
      <path id="DejaVuSans-43f" d="M 3603 3500 
L 3603 0 
L 3025 0 
L 3025 3041 
L 1159 3041 
L 1159 0 
L 581 0 
L 581 3500 
L 3603 3500 
z
" transform="scale(0.015625)"/>
      <path id="DejaVuSans-44f" d="M 1181 2491 
Q 1181 2231 1381 2084 
Q 1581 1938 1953 1938 
L 2728 1938 
L 2728 3041 
L 1953 3041 
Q 1581 3041 1381 2897 
Q 1181 2753 1181 2491 
z
M 363 0 
L 1431 1534 
Q 1069 1616 828 1830 
Q 588 2044 588 2491 
Q 588 2997 923 3248 
Q 1259 3500 1938 3500 
L 3306 3500 
L 3306 0 
L 2728 0 
L 2728 1478 
L 2013 1478 
L 981 0 
L 363 0 
z
" transform="scale(0.015625)"/>
      <path id="DejaVuSans-43c" d="M 581 3500 
L 1422 3500 
L 2416 1156 
L 3413 3500 
L 4247 3500 
L 4247 0 
L 3669 0 
L 3669 2950 
L 2703 672 
L 2128 672 
L 1159 2950 
L 1159 0 
L 581 0 
L 581 3500 
z
" transform="scale(0.015625)"/>
     </defs>
     <use xlink:href="#DejaVuSans-41"/>
     <use xlink:href="#DejaVuSans-2e" transform="translate(66.658203 0)"/>
     <use xlink:href="#DejaVuSans-20" transform="translate(98.445312 0)"/>
     <use xlink:href="#DejaVuSans-41f" transform="translate(130.232422 0)"/>
     <use xlink:href="#DejaVuSans-43e" transform="translate(205.427734 0)"/>
     <use xlink:href="#DejaVuSans-43a" transform="translate(266.609375 0)"/>
     <use xlink:href="#DejaVuSans-440" transform="translate(327.009766 0)"/>
     <use xlink:href="#DejaVuSans-44b" transform="translate(390.486328 0)"/>
     <use xlink:href="#DejaVuSans-442" transform="translate(469.441406 0)"/>
     <use xlink:href="#DejaVuSans-438" transform="translate(527.693359 0)"/>
     <use xlink:href="#DejaVuSans-435" transform="translate(592.683594 0)"/>
     <use xlink:href="#DejaVuSans-20" transform="translate(654.207031 0)"/>
     <use xlink:href="#DejaVuSans-44" transform="translate(685.994141 0)"/>
     <use xlink:href="#DejaVuSans-42" transform="translate(762.996094 0)"/>
     <use xlink:href="#DejaVuSans-52" transform="translate(831.599609 0)"/>
     <use xlink:href="#DejaVuSans-20" transform="translate(901.082031 0)"/>
     <use xlink:href="#DejaVuSans-43f" transform="translate(932.869141 0)"/>
     <use xlink:href="#DejaVuSans-43e" transform="translate(998.25 0)"/>
     <use xlink:href="#DejaVuSans-20" transform="translate(1059.431641 0)"/>
     <use xlink:href="#DejaVuSans-43f" transform="translate(1091.21875 0)"/>
     <use xlink:href="#DejaVuSans-43e" transform="translate(1156.599609 0)"/>
     <use xlink:href="#DejaVuSans-43a" transform="translate(1217.78125 0)"/>
     <use xlink:href="#DejaVuSans-43e" transform="translate(1278.181641 0)"/>
     <use xlink:href="#DejaVuSans-43b" transform="translate(1339.363281 0)"/>
     <use xlink:href="#DejaVuSans-435" transform="translate(1403.279297 0)"/>
     <use xlink:href="#DejaVuSans-43d" transform="translate(1464.802734 0)"/>
     <use xlink:href="#DejaVuSans-438" transform="translate(1530.183594 0)"/>
     <use xlink:href="#DejaVuSans-44f" transform="translate(1595.173828 0)"/>
     <use xlink:href="#DejaVuSans-43c" transform="translate(1655.330078 0)"/>
    </g>
   </g>
   <g id="legend_1">
    <g id="patch_7">
     <path d="M 56.44375 327.94 
L 212.669687 327.94 
Q 214.469687 327.94 214.469687 326.14 
L 214.469687 300.619375 
Q 214.469687 298.819375 212.669687 298.819375 
L 56.44375 298.819375 
Q 54.64375 298.819375 54.64375 300.619375 
L 54.64375 326.14 
Q 54.64375 327.94 56.44375 327.94 
z
" style="fill: #ffffff; opacity: 0.8; stroke: #cccccc; stroke-linejoin: miter"/>
    </g>
    <g id="line2d_21">
     <path d="M 58.24375 306.107969 
L 67.24375 306.107969 
L 76.24375 306.107969 
" style="fill: none; stroke: #4e79a7; stroke-width: 2.2; stroke-linecap: square"/>
     <g>
      <use xlink:href="#m8872e64748" x="67.24375" y="306.107969" style="fill: #4e79a7; stroke: #4e79a7"/>
     </g>
    </g>
    <g id="text_13">
     <!-- Серия 211–213 -->
     <g transform="translate(83.44375 309.257969) scale(0.09 -0.09)">
      <defs>
       <path id="DejaVuSans-421" d="M 4122 4306 
L 4122 3641 
Q 3803 3938 3442 4084 
Q 3081 4231 2675 4231 
Q 1875 4231 1450 3742 
Q 1025 3253 1025 2328 
Q 1025 1406 1450 917 
Q 1875 428 2675 428 
Q 3081 428 3442 575 
Q 3803 722 4122 1019 
L 4122 359 
Q 3791 134 3420 21 
Q 3050 -91 2638 -91 
Q 1578 -91 968 557 
Q 359 1206 359 2328 
Q 359 3453 968 4101 
Q 1578 4750 2638 4750 
Q 3056 4750 3426 4639 
Q 3797 4528 4122 4306 
z
" transform="scale(0.015625)"/>
       <path id="DejaVuSans-2013" d="M 313 1978 
L 2888 1978 
L 2888 1528 
L 313 1528 
L 313 1978 
z
" transform="scale(0.015625)"/>
       <path id="DejaVuSans-33" d="M 2597 2516 
Q 3050 2419 3304 2112 
Q 3559 1806 3559 1356 
Q 3559 666 3084 287 
Q 2609 -91 1734 -91 
Q 1441 -91 1130 -33 
Q 819 25 488 141 
L 488 750 
Q 750 597 1062 519 
Q 1375 441 1716 441 
Q 2309 441 2620 675 
Q 2931 909 2931 1356 
Q 2931 1769 2642 2001 
Q 2353 2234 1838 2234 
L 1294 2234 
L 1294 2753 
L 1863 2753 
Q 2328 2753 2575 2939 
Q 2822 3125 2822 3475 
Q 2822 3834 2567 4026 
Q 2313 4219 1838 4219 
Q 1578 4219 1281 4162 
Q 984 4106 628 3988 
L 628 4550 
Q 988 4650 1302 4700 
Q 1616 4750 1894 4750 
Q 2613 4750 3031 4423 
Q 3450 4097 3450 3541 
Q 3450 3153 3228 2886 
Q 3006 2619 2597 2516 
z
" transform="scale(0.015625)"/>
      </defs>
      <use xlink:href="#DejaVuSans-421"/>
      <use xlink:href="#DejaVuSans-435" transform="translate(69.824219 0)"/>
      <use xlink:href="#DejaVuSans-440" transform="translate(131.347656 0)"/>
      <use xlink:href="#DejaVuSans-438" transform="translate(194.824219 0)"/>
      <use xlink:href="#DejaVuSans-44f" transform="translate(259.814453 0)"/>
      <use xlink:href="#DejaVuSans-20" transform="translate(319.970703 0)"/>
      <use xlink:href="#DejaVuSans-32" transform="translate(351.757812 0)"/>
      <use xlink:href="#DejaVuSans-31" transform="translate(415.380859 0)"/>
      <use xlink:href="#DejaVuSans-31" transform="translate(479.003906 0)"/>
      <use xlink:href="#DejaVuSans-2013" transform="translate(542.626953 0)"/>
      <use xlink:href="#DejaVuSans-32" transform="translate(592.626953 0)"/>
      <use xlink:href="#DejaVuSans-31" transform="translate(656.25 0)"/>
      <use xlink:href="#DejaVuSans-33" transform="translate(719.873047 0)"/>
     </g>
    </g>
    <g id="line2d_22">
     <path d="M 58.24375 319.318281 
L 67.24375 319.318281 
L 76.24375 319.318281 
" style="fill: none; stroke: #f28e2b; stroke-width: 2.2; stroke-linecap: square"/>
     <g>
      <use xlink:href="#mb8a76a6b4a" x="67.24375" y="319.318281" style="fill: #f28e2b; stroke: #f28e2b"/>
     </g>
    </g>
    <g id="text_14">
     <!-- Чистая DBR-серия 221–223 -->
     <g transform="translate(83.44375 322.468281) scale(0.09 -0.09)">
      <defs>
       <path id="DejaVuSans-427" d="M 3125 0 
L 3125 1913 
L 1822 1913 
Q 1241 1913 894 2277 
Q 547 2641 547 3384 
L 547 4666 
L 1175 4666 
L 1175 3434 
Q 1175 2938 1369 2691 
Q 1563 2444 1950 2444 
L 3125 2444 
L 3125 4666 
L 3759 4666 
L 3759 0 
L 3125 0 
z
" transform="scale(0.015625)"/>
       <path id="DejaVuSans-441" d="M 3122 3366 
L 3122 2828 
Q 2878 2963 2633 3030 
Q 2388 3097 2138 3097 
Q 1578 3097 1268 2742 
Q 959 2388 959 1747 
Q 959 1106 1268 751 
Q 1578 397 2138 397 
Q 2388 397 2633 464 
Q 2878 531 3122 666 
L 3122 134 
Q 2881 22 2623 -34 
Q 2366 -91 2075 -91 
Q 1284 -91 818 406 
Q 353 903 353 1747 
Q 353 2603 823 3093 
Q 1294 3584 2113 3584 
Q 2378 3584 2631 3529 
Q 2884 3475 3122 3366 
z
" transform="scale(0.015625)"/>
       <path id="DejaVuSans-430" d="M 2194 1759 
Q 1497 1759 1228 1600 
Q 959 1441 959 1056 
Q 959 750 1161 570 
Q 1363 391 1709 391 
Q 2188 391 2477 730 
Q 2766 1069 2766 1631 
L 2766 1759 
L 2194 1759 
z
M 3341 1997 
L 3341 0 
L 2766 0 
L 2766 531 
Q 2569 213 2275 61 
Q 1981 -91 1556 -91 
Q 1019 -91 701 211 
Q 384 513 384 1019 
Q 384 1609 779 1909 
Q 1175 2209 1959 2209 
L 2766 2209 
L 2766 2266 
Q 2766 2663 2505 2880 
Q 2244 3097 1772 3097 
Q 1472 3097 1187 3025 
Q 903 2953 641 2809 
L 641 3341 
Q 956 3463 1253 3523 
Q 1550 3584 1831 3584 
Q 2591 3584 2966 3190 
Q 3341 2797 3341 1997 
z
" transform="scale(0.015625)"/>
       <path id="DejaVuSans-2d" d="M 313 2009 
L 1997 2009 
L 1997 1497 
L 313 1497 
L 313 2009 
z
" transform="scale(0.015625)"/>
      </defs>
      <use xlink:href="#DejaVuSans-427"/>
      <use xlink:href="#DejaVuSans-438" transform="translate(68.554688 0)"/>
      <use xlink:href="#DejaVuSans-441" transform="translate(133.544922 0)"/>
      <use xlink:href="#DejaVuSans-442" transform="translate(188.525391 0)"/>
      <use xlink:href="#DejaVuSans-430" transform="translate(246.777344 0)"/>
      <use xlink:href="#DejaVuSans-44f" transform="translate(308.056641 0)"/>
      <use xlink:href="#DejaVuSans-20" transform="translate(368.212891 0)"/>
      <use xlink:href="#DejaVuSans-44" transform="translate(400 0)"/>
      <use xlink:href="#DejaVuSans-42" transform="translate(477.001953 0)"/>
      <use xlink:href="#DejaVuSans-52" transform="translate(545.605469 0)"/>
      <use xlink:href="#DejaVuSans-2d" transform="translate(611.087891 0)"/>
      <use xlink:href="#DejaVuSans-441" transform="translate(647.171875 0)"/>
      <use xlink:href="#DejaVuSans-435" transform="translate(702.152344 0)"/>
      <use xlink:href="#DejaVuSans-440" transform="translate(763.675781 0)"/>
      <use xlink:href="#DejaVuSans-438" transform="translate(827.152344 0)"/>
      <use xlink:href="#DejaVuSans-44f" transform="translate(892.142578 0)"/>
      <use xlink:href="#DejaVuSans-20" transform="translate(952.298828 0)"/>
      <use xlink:href="#DejaVuSans-32" transform="translate(984.085938 0)"/>
      <use xlink:href="#DejaVuSans-32" transform="translate(1047.708984 0)"/>
      <use xlink:href="#DejaVuSans-31" transform="translate(1111.332031 0)"/>
      <use xlink:href="#DejaVuSans-2013" transform="translate(1174.955078 0)"/>
      <use xlink:href="#DejaVuSans-32" transform="translate(1224.955078 0)"/>
      <use xlink:href="#DejaVuSans-32" transform="translate(1288.578125 0)"/>
      <use xlink:href="#DejaVuSans-33" transform="translate(1352.201172 0)"/>
     </g>
    </g>
   </g>
  </g>
  <g id="axes_2">
   <g id="patch_8">
    <path d="M 428.84514 332.44 
L 758.53236 332.44 
L 758.53236 76.128 
L 428.84514 76.128 
z
" style="fill: #ffffff"/>
   </g>
   <g id="patch_9">
    <path d="M 443.830923 332.44 
L 466.690592 332.44 
L 466.690592 187.766116 
L 443.830923 187.766116 
z
" clip-path="url(#p476ac4390f)" style="fill: #9ea3a8"/>
   </g>
   <g id="patch_10">
    <path d="M 507.330002 332.44 
L 530.189671 332.44 
L 530.189671 212.827733 
L 507.330002 212.827733 
z
" clip-path="url(#p476ac4390f)" style="fill: #9ea3a8"/>
   </g>
   <g id="patch_11">
    <path d="M 570.829081 332.44 
L 593.68875 332.44 
L 593.68875 248.711413 
L 570.829081 248.711413 
z
" clip-path="url(#p476ac4390f)" style="fill: #9ea3a8"/>
   </g>
   <g id="patch_12">
    <path d="M 634.328161 332.44 
L 657.187829 332.44 
L 657.187829 269.216373 
L 634.328161 269.216373 
z
" clip-path="url(#p476ac4390f)" style="fill: #9ea3a8"/>
   </g>
   <g id="patch_13">
    <path d="M 697.82724 332.44 
L 720.686908 332.44 
L 720.686908 326.174596 
L 697.82724 326.174596 
z
" clip-path="url(#p476ac4390f)" style="fill: #9ea3a8"/>
   </g>
   <g id="patch_14">
    <path d="M 466.690592 332.44 
L 489.55026 332.44 
L 489.55026 190.686193 
L 466.690592 190.686193 
z
" clip-path="url(#p476ac4390f)" style="fill: #4e79a7"/>
   </g>
   <g id="patch_15">
    <path d="M 530.189671 332.44 
L 553.049339 332.44 
L 553.049339 215.714392 
L 530.189671 215.714392 
z
" clip-path="url(#p476ac4390f)" style="fill: #4e79a7"/>
   </g>
   <g id="patch_16">
    <path d="M 593.68875 332.44 
L 616.548419 332.44 
L 616.548419 252.49991 
L 593.68875 252.49991 
z
" clip-path="url(#p476ac4390f)" style="fill: #4e79a7"/>
   </g>
   <g id="patch_17">
    <path d="M 657.187829 332.44 
L 680.047498 332.44 
L 680.047498 269.996643 
L 657.187829 269.996643 
z
" clip-path="url(#p476ac4390f)" style="fill: #4e79a7"/>
   </g>
   <g id="patch_18">
    <path d="M 720.686908 332.44 
L 743.546577 332.44 
L 743.546577 332.44 
L 720.686908 332.44 
z
" clip-path="url(#p476ac4390f)" style="fill: #4e79a7"/>
   </g>
   <g id="matplotlib.axis_3">
    <g id="xtick_4">
     <g id="line2d_23">
      <g>
       <use xlink:href="#m71d22988fe" x="466.690592" y="332.44" style="stroke: #000000; stroke-width: 0.8"/>
      </g>
     </g>
     <g id="text_15">
      <!-- Неправильный -->
      <g transform="translate(427.542154 347.038437) scale(0.1 -0.1)">
       <defs>
        <path id="DejaVuSans-41d" d="M 628 4666 
L 1259 4666 
L 1259 2753 
L 3553 2753 
L 3553 4666 
L 4184 4666 
L 4184 0 
L 3553 0 
L 3553 2222 
L 1259 2222 
L 1259 0 
L 628 0 
L 628 4666 
z
" transform="scale(0.015625)"/>
        <path id="DejaVuSans-432" d="M 1156 1613 
L 1156 459 
L 1975 459 
Q 2369 459 2575 607 
Q 2781 756 2781 1038 
Q 2781 1319 2575 1466 
Q 2369 1613 1975 1613 
L 1156 1613 
z
M 1156 3041 
L 1156 2072 
L 1913 2072 
Q 2238 2072 2444 2201 
Q 2650 2331 2650 2563 
Q 2650 2794 2444 2917 
Q 2238 3041 1913 3041 
L 1156 3041 
z
M 581 3500 
L 1950 3500 
Q 2566 3500 2897 3275 
Q 3228 3050 3228 2634 
Q 3228 2313 3059 2123 
Q 2891 1934 2559 1888 
Q 2956 1813 3175 1575 
Q 3394 1338 3394 981 
Q 3394 513 3033 256 
Q 2672 0 2003 0 
L 581 0 
L 581 3500 
z
" transform="scale(0.015625)"/>
        <path id="DejaVuSans-44c" d="M 2781 1038 
Q 2781 1319 2576 1466 
Q 2372 1613 1978 1613 
L 1159 1613 
L 1159 459 
L 1978 459 
Q 2372 459 2576 607 
Q 2781 756 2781 1038 
z
M 581 3500 
L 1159 3500 
L 1159 2072 
L 2003 2072 
Q 2672 2072 3033 1817 
Q 3394 1563 3394 1038 
Q 3394 513 3033 256 
Q 2672 0 2003 0 
L 581 0 
L 581 3500 
z
" transform="scale(0.015625)"/>
        <path id="DejaVuSans-439" d="M 3578 3500 
L 3578 0 
L 3006 0 
L 3006 2809 
L 1319 0 
L 581 0 
L 581 3500 
L 1153 3500 
L 1153 697 
L 2838 3500 
L 3578 3500 
z
M 1102 4833 
L 1471 4833 
Q 1505 4599 1656 4481 
Q 1808 4364 2080 4364 
Q 2349 4364 2499 4480 
Q 2649 4596 2689 4833 
L 3058 4833 
Q 3027 4386 2780 4161 
Q 2533 3936 2080 3936 
Q 1627 3936 1380 4161 
Q 1133 4386 1102 4833 
z
" transform="scale(0.015625)"/>
       </defs>
       <use xlink:href="#DejaVuSans-41d"/>
       <use xlink:href="#DejaVuSans-435" transform="translate(75.195312 0)"/>
       <use xlink:href="#DejaVuSans-43f" transform="translate(136.71875 0)"/>
       <use xlink:href="#DejaVuSans-440" transform="translate(202.099609 0)"/>
       <use xlink:href="#DejaVuSans-430" transform="translate(265.576172 0)"/>
       <use xlink:href="#DejaVuSans-432" transform="translate(326.855469 0)"/>
       <use xlink:href="#DejaVuSans-438" transform="translate(385.791016 0)"/>
       <use xlink:href="#DejaVuSans-43b" transform="translate(450.78125 0)"/>
       <use xlink:href="#DejaVuSans-44c" transform="translate(514.697266 0)"/>
       <use xlink:href="#DejaVuSans-43d" transform="translate(573.632812 0)"/>
       <use xlink:href="#DejaVuSans-44b" transform="translate(639.013672 0)"/>
       <use xlink:href="#DejaVuSans-439" transform="translate(717.96875 0)"/>
      </g>
      <!-- ответ -->
      <g transform="translate(451.782779 358.23625) scale(0.1 -0.1)">
       <use xlink:href="#DejaVuSans-43e"/>
       <use xlink:href="#DejaVuSans-442" transform="translate(61.181641 0)"/>
       <use xlink:href="#DejaVuSans-432" transform="translate(119.433594 0)"/>
       <use xlink:href="#DejaVuSans-435" transform="translate(178.369141 0)"/>
       <use xlink:href="#DejaVuSans-442" transform="translate(239.892578 0)"/>
      </g>
     </g>
    </g>
    <g id="xtick_5">
     <g id="line2d_24">
      <g>
       <use xlink:href="#m71d22988fe" x="530.189671" y="332.44" style="stroke: #000000; stroke-width: 0.8"/>
      </g>
     </g>
     <g id="text_16">
      <!-- Слабое -->
      <g transform="translate(511.218577 347.038437) scale(0.1 -0.1)">
       <defs>
        <path id="DejaVuSans-431" d="M 1991 3584 
Q 2741 3584 3169 3096 
Q 3597 2609 3597 1747 
Q 3597 888 3169 398 
Q 2741 -91 1991 -91 
Q 1238 -91 822 384 
Q 406 859 384 1747 
L 366 2463 
Q 350 2834 350 2963 
Q 350 3463 531 3831 
Q 816 4409 1308 4659 
Q 1800 4909 2625 4916 
Q 3006 4919 3175 4972 
L 3334 4516 
Q 3181 4453 3041 4450 
L 2259 4397 
Q 1866 4369 1628 4231 
Q 1006 3866 947 3388 
L 925 3213 
Q 1331 3584 1991 3584 
z
M 1991 3097 
Q 1528 3097 1259 2736 
Q 991 2375 991 1747 
Q 991 1119 1258 758 
Q 1525 397 1991 397 
Q 2450 397 2719 759 
Q 2988 1122 2988 1747 
Q 2988 2369 2719 2733 
Q 2450 3097 1991 3097 
z
" transform="scale(0.015625)"/>
       </defs>
       <use xlink:href="#DejaVuSans-421"/>
       <use xlink:href="#DejaVuSans-43b" transform="translate(69.824219 0)"/>
       <use xlink:href="#DejaVuSans-430" transform="translate(133.740234 0)"/>
       <use xlink:href="#DejaVuSans-431" transform="translate(195.019531 0)"/>
       <use xlink:href="#DejaVuSans-43e" transform="translate(256.689453 0)"/>
       <use xlink:href="#DejaVuSans-435" transform="translate(317.871094 0)"/>
      </g>
      <!-- рассуждение -->
      <g transform="translate(494.860765 358.23625) scale(0.1 -0.1)">
       <defs>
        <path id="DejaVuSans-443" d="M 2059 -325 
Q 1816 -950 1584 -1140 
Q 1353 -1331 966 -1331 
L 506 -1331 
L 506 -850 
L 844 -850 
Q 1081 -850 1212 -737 
Q 1344 -625 1503 -206 
L 1606 56 
L 191 3500 
L 800 3500 
L 1894 763 
L 2988 3500 
L 3597 3500 
L 2059 -325 
z
" transform="scale(0.015625)"/>
        <path id="DejaVuSans-436" d="M 2597 3500 
L 3169 3500 
L 3169 1856 
L 4697 3500 
L 5366 3500 
L 4109 2153 
L 5547 0 
L 4931 0 
L 3753 1769 
L 3169 1141 
L 3169 0 
L 2597 0 
L 2597 1141 
L 2013 1769 
L 834 0 
L 219 0 
L 1656 2153 
L 400 3500 
L 1069 3500 
L 2597 1856 
L 2597 3500 
z
" transform="scale(0.015625)"/>
        <path id="DejaVuSans-434" d="M 1384 459 
L 3053 459 
L 3053 3041 
L 1844 3041 
L 1844 2603 
Q 1844 1316 1475 628 
L 1384 459 
z
M 550 459 
Q 834 584 959 850 
Q 1266 1509 1266 2838 
L 1266 3500 
L 3631 3500 
L 3631 459 
L 4091 459 
L 4091 -884 
L 3631 -884 
L 3631 0 
L 794 0 
L 794 -884 
L 334 -884 
L 334 459 
L 550 459 
z
" transform="scale(0.015625)"/>
       </defs>
       <use xlink:href="#DejaVuSans-440"/>
       <use xlink:href="#DejaVuSans-430" transform="translate(63.476562 0)"/>
       <use xlink:href="#DejaVuSans-441" transform="translate(124.755859 0)"/>
       <use xlink:href="#DejaVuSans-441" transform="translate(179.736328 0)"/>
       <use xlink:href="#DejaVuSans-443" transform="translate(234.716797 0)"/>
       <use xlink:href="#DejaVuSans-436" transform="translate(293.896484 0)"/>
       <use xlink:href="#DejaVuSans-434" transform="translate(383.984375 0)"/>
       <use xlink:href="#DejaVuSans-435" transform="translate(453.125 0)"/>
       <use xlink:href="#DejaVuSans-43d" transform="translate(514.648438 0)"/>
       <use xlink:href="#DejaVuSans-438" transform="translate(580.029297 0)"/>
       <use xlink:href="#DejaVuSans-435" transform="translate(645.019531 0)"/>
      </g>
     </g>
    </g>
    <g id="xtick_6">
     <g id="line2d_25">
      <g>
       <use xlink:href="#m71d22988fe" x="593.68875" y="332.44" style="stroke: #000000; stroke-width: 0.8"/>
      </g>
     </g>
     <g id="text_17">
      <!-- Слабая -->
      <g transform="translate(574.781719 347.038437) scale(0.1 -0.1)">
       <use xlink:href="#DejaVuSans-421"/>
       <use xlink:href="#DejaVuSans-43b" transform="translate(69.824219 0)"/>
       <use xlink:href="#DejaVuSans-430" transform="translate(133.740234 0)"/>
       <use xlink:href="#DejaVuSans-431" transform="translate(195.019531 0)"/>
       <use xlink:href="#DejaVuSans-430" transform="translate(256.689453 0)"/>
       <use xlink:href="#DejaVuSans-44f" transform="translate(317.96875 0)"/>
      </g>
      <!-- структура -->
      <g transform="translate(566.762969 358.23625) scale(0.1 -0.1)">
       <use xlink:href="#DejaVuSans-441"/>
       <use xlink:href="#DejaVuSans-442" transform="translate(54.980469 0)"/>
       <use xlink:href="#DejaVuSans-440" transform="translate(113.232422 0)"/>
       <use xlink:href="#DejaVuSans-443" transform="translate(176.708984 0)"/>
       <use xlink:href="#DejaVuSans-43a" transform="translate(235.888672 0)"/>
       <use xlink:href="#DejaVuSans-442" transform="translate(296.289062 0)"/>
       <use xlink:href="#DejaVuSans-443" transform="translate(354.541016 0)"/>
       <use xlink:href="#DejaVuSans-440" transform="translate(413.720703 0)"/>
       <use xlink:href="#DejaVuSans-430" transform="translate(477.197266 0)"/>
      </g>
     </g>
    </g>
    <g id="xtick_7">
     <g id="line2d_26">
      <g>
       <use xlink:href="#m71d22988fe" x="657.187829" y="332.44" style="stroke: #000000; stroke-width: 0.8"/>
      </g>
     </g>
     <g id="text_18">
      <!-- Скрытая -->
      <g transform="translate(634.56986 347.038437) scale(0.1 -0.1)">
       <use xlink:href="#DejaVuSans-421"/>
       <use xlink:href="#DejaVuSans-43a" transform="translate(69.824219 0)"/>
       <use xlink:href="#DejaVuSans-440" transform="translate(130.224609 0)"/>
       <use xlink:href="#DejaVuSans-44b" transform="translate(193.701172 0)"/>
       <use xlink:href="#DejaVuSans-442" transform="translate(272.65625 0)"/>
       <use xlink:href="#DejaVuSans-430" transform="translate(330.908203 0)"/>
       <use xlink:href="#DejaVuSans-44f" transform="translate(392.1875 0)"/>
      </g>
      <!-- ошибка -->
      <g transform="translate(637.136267 358.23625) scale(0.1 -0.1)">
       <defs>
        <path id="DejaVuSans-448" d="M 3216 459 
L 4697 459 
L 4697 3500 
L 5275 3500 
L 5275 0 
L 581 0 
L 581 3500 
L 1159 3500 
L 1159 459 
L 2638 459 
L 2638 3500 
L 3216 3500 
L 3216 459 
z
" transform="scale(0.015625)"/>
       </defs>
       <use xlink:href="#DejaVuSans-43e"/>
       <use xlink:href="#DejaVuSans-448" transform="translate(61.181641 0)"/>
       <use xlink:href="#DejaVuSans-438" transform="translate(152.685547 0)"/>
       <use xlink:href="#DejaVuSans-431" transform="translate(217.675781 0)"/>
       <use xlink:href="#DejaVuSans-43a" transform="translate(279.345703 0)"/>
       <use xlink:href="#DejaVuSans-430" transform="translate(339.746094 0)"/>
      </g>
     </g>
    </g>
    <g id="xtick_8">
     <g id="line2d_27">
      <g>
       <use xlink:href="#m71d22988fe" x="720.686908" y="332.44" style="stroke: #000000; stroke-width: 0.8"/>
      </g>
     </g>
     <g id="text_19">
      <!-- Ошибка -->
      <g transform="translate(699.758783 347.038437) scale(0.1 -0.1)">
       <defs>
        <path id="DejaVuSans-41e" d="M 2522 4238 
Q 1834 4238 1429 3725 
Q 1025 3213 1025 2328 
Q 1025 1447 1429 934 
Q 1834 422 2522 422 
Q 3209 422 3611 934 
Q 4013 1447 4013 2328 
Q 4013 3213 3611 3725 
Q 3209 4238 2522 4238 
z
M 2522 4750 
Q 3503 4750 4090 4092 
Q 4678 3434 4678 2328 
Q 4678 1225 4090 567 
Q 3503 -91 2522 -91 
Q 1538 -91 948 565 
Q 359 1222 359 2328 
Q 359 3434 948 4092 
Q 1538 4750 2522 4750 
z
" transform="scale(0.015625)"/>
       </defs>
       <use xlink:href="#DejaVuSans-41e"/>
       <use xlink:href="#DejaVuSans-448" transform="translate(78.710938 0)"/>
       <use xlink:href="#DejaVuSans-438" transform="translate(170.214844 0)"/>
       <use xlink:href="#DejaVuSans-431" transform="translate(235.205078 0)"/>
       <use xlink:href="#DejaVuSans-43a" transform="translate(296.875 0)"/>
       <use xlink:href="#DejaVuSans-430" transform="translate(357.275391 0)"/>
      </g>
      <!-- разбора -->
      <g transform="translate(699.408783 358.440625) scale(0.1 -0.1)">
       <defs>
        <path id="DejaVuSans-437" d="M 2206 1888 
Q 2594 1813 2809 1584 
Q 3025 1356 3025 1019 
Q 3025 478 2622 193 
Q 2219 -91 1475 -91 
Q 1225 -91 961 -47 
Q 697 -3 416 84 
L 416 619 
Q 638 503 903 445 
Q 1169 388 1459 388 
Q 1931 388 2195 563 
Q 2459 738 2459 1019 
Q 2459 1294 2225 1461 
Q 1991 1628 1563 1628 
L 1100 1628 
L 1100 2103 
L 1584 2103 
Q 1947 2103 2158 2242 
Q 2369 2381 2369 2600 
Q 2369 2800 2151 2944 
Q 1934 3088 1563 3088 
Q 1341 3088 1089 3047 
Q 838 3006 534 2916 
L 534 3438 
Q 841 3513 1106 3550 
Q 1372 3588 1609 3588 
Q 2222 3588 2576 3342 
Q 2931 3097 2931 2656 
Q 2931 2366 2743 2164 
Q 2556 1963 2206 1888 
z
" transform="scale(0.015625)"/>
       </defs>
       <use xlink:href="#DejaVuSans-440"/>
       <use xlink:href="#DejaVuSans-430" transform="translate(63.476562 0)"/>
       <use xlink:href="#DejaVuSans-437" transform="translate(124.755859 0)"/>
       <use xlink:href="#DejaVuSans-431" transform="translate(177.929688 0)"/>
       <use xlink:href="#DejaVuSans-43e" transform="translate(239.599609 0)"/>
       <use xlink:href="#DejaVuSans-440" transform="translate(300.78125 0)"/>
       <use xlink:href="#DejaVuSans-430" transform="translate(364.257812 0)"/>
      </g>
     </g>
    </g>
   </g>
   <g id="matplotlib.axis_4">
    <g id="ytick_7">
     <g id="line2d_28">
      <path d="M 428.84514 332.44 
L 758.53236 332.44 
" clip-path="url(#p476ac4390f)" style="fill: none; stroke: #b0b0b0; stroke-opacity: 0.25; stroke-width: 0.8; stroke-linecap: square"/>
     </g>
     <g id="line2d_29">
      <g>
       <use xlink:href="#m8e4cc34f45" x="428.84514" y="332.44" style="stroke: #000000; stroke-width: 0.8"/>
      </g>
     </g>
     <g id="text_20">
      <!-- 0.0 -->
      <g transform="translate(405.942015 336.239219) scale(0.1 -0.1)">
       <use xlink:href="#DejaVuSans-30"/>
       <use xlink:href="#DejaVuSans-2e" transform="translate(63.623047 0)"/>
       <use xlink:href="#DejaVuSans-30" transform="translate(95.410156 0)"/>
      </g>
     </g>
    </g>
    <g id="ytick_8">
     <g id="line2d_30">
      <path d="M 428.84514 281.1776 
L 758.53236 281.1776 
" clip-path="url(#p476ac4390f)" style="fill: none; stroke: #b0b0b0; stroke-opacity: 0.25; stroke-width: 0.8; stroke-linecap: square"/>
     </g>
     <g id="line2d_31">
      <g>
       <use xlink:href="#m8e4cc34f45" x="428.84514" y="281.1776" style="stroke: #000000; stroke-width: 0.8"/>
      </g>
     </g>
     <g id="text_21">
      <!-- 0.2 -->
      <g transform="translate(405.942015 284.976819) scale(0.1 -0.1)">
       <use xlink:href="#DejaVuSans-30"/>
       <use xlink:href="#DejaVuSans-2e" transform="translate(63.623047 0)"/>
       <use xlink:href="#DejaVuSans-32" transform="translate(95.410156 0)"/>
      </g>
     </g>
    </g>
    <g id="ytick_9">
     <g id="line2d_32">
      <path d="M 428.84514 229.9152 
L 758.53236 229.9152 
" clip-path="url(#p476ac4390f)" style="fill: none; stroke: #b0b0b0; stroke-opacity: 0.25; stroke-width: 0.8; stroke-linecap: square"/>
     </g>
     <g id="line2d_33">
      <g>
       <use xlink:href="#m8e4cc34f45" x="428.84514" y="229.9152" style="stroke: #000000; stroke-width: 0.8"/>
      </g>
     </g>
     <g id="text_22">
      <!-- 0.4 -->
      <g transform="translate(405.942015 233.714419) scale(0.1 -0.1)">
       <use xlink:href="#DejaVuSans-30"/>
       <use xlink:href="#DejaVuSans-2e" transform="translate(63.623047 0)"/>
       <use xlink:href="#DejaVuSans-34" transform="translate(95.410156 0)"/>
      </g>
     </g>
    </g>
    <g id="ytick_10">
     <g id="line2d_34">
      <path d="M 428.84514 178.6528 
L 758.53236 178.6528 
" clip-path="url(#p476ac4390f)" style="fill: none; stroke: #b0b0b0; stroke-opacity: 0.25; stroke-width: 0.8; stroke-linecap: square"/>
     </g>
     <g id="line2d_35">
      <g>
       <use xlink:href="#m8e4cc34f45" x="428.84514" y="178.6528" style="stroke: #000000; stroke-width: 0.8"/>
      </g>
     </g>
     <g id="text_23">
      <!-- 0.6 -->
      <g transform="translate(405.942015 182.452019) scale(0.1 -0.1)">
       <use xlink:href="#DejaVuSans-30"/>
       <use xlink:href="#DejaVuSans-2e" transform="translate(63.623047 0)"/>
       <use xlink:href="#DejaVuSans-36" transform="translate(95.410156 0)"/>
      </g>
     </g>
    </g>
    <g id="ytick_11">
     <g id="line2d_36">
      <path d="M 428.84514 127.3904 
L 758.53236 127.3904 
" clip-path="url(#p476ac4390f)" style="fill: none; stroke: #b0b0b0; stroke-opacity: 0.25; stroke-width: 0.8; stroke-linecap: square"/>
     </g>
     <g id="line2d_37">
      <g>
       <use xlink:href="#m8e4cc34f45" x="428.84514" y="127.3904" style="stroke: #000000; stroke-width: 0.8"/>
      </g>
     </g>
     <g id="text_24">
      <!-- 0.8 -->
      <g transform="translate(405.942015 131.189619) scale(0.1 -0.1)">
       <use xlink:href="#DejaVuSans-30"/>
       <use xlink:href="#DejaVuSans-2e" transform="translate(63.623047 0)"/>
       <use xlink:href="#DejaVuSans-38" transform="translate(95.410156 0)"/>
      </g>
     </g>
    </g>
    <g id="ytick_12">
     <g id="line2d_38">
      <path d="M 428.84514 76.128 
L 758.53236 76.128 
" clip-path="url(#p476ac4390f)" style="fill: none; stroke: #b0b0b0; stroke-opacity: 0.25; stroke-width: 0.8; stroke-linecap: square"/>
     </g>
     <g id="line2d_39">
      <g>
       <use xlink:href="#m8e4cc34f45" x="428.84514" y="76.128" style="stroke: #000000; stroke-width: 0.8"/>
      </g>
     </g>
     <g id="text_25">
      <!-- 1.0 -->
      <g transform="translate(405.942015 79.927219) scale(0.1 -0.1)">
       <use xlink:href="#DejaVuSans-31"/>
       <use xlink:href="#DejaVuSans-2e" transform="translate(63.623047 0)"/>
       <use xlink:href="#DejaVuSans-30" transform="translate(95.410156 0)"/>
      </g>
     </g>
    </g>
    <g id="text_26">
     <!-- Доля дефекта -->
     <g transform="translate(399.862328 241.924625) rotate(-90) scale(0.1 -0.1)">
      <defs>
       <path id="DejaVuSans-414" d="M 1459 531 
L 3522 531 
L 3522 4134 
L 2006 4134 
L 2006 3472 
Q 2006 1913 1656 878 
Q 1584 666 1459 531 
z
M 538 531 
Q 956 728 1075 1103 
Q 1378 2066 1378 3784 
L 1378 4666 
L 4153 4666 
L 4153 531 
L 4684 531 
L 4684 -1003 
L 4153 -1003 
L 4153 0 
L 847 0 
L 847 -1003 
L 316 -1003 
L 316 531 
L 538 531 
z
" transform="scale(0.015625)"/>
       <path id="DejaVuSans-444" d="M 947 1747 
Q 947 1013 1173 702 
Q 1400 391 1784 391 
Q 2091 391 2447 916 
L 2447 2578 
Q 2091 3103 1784 3103 
Q 1400 3103 1173 2792 
Q 947 2481 947 1747 
z
M 2447 -1331 
L 2447 447 
Q 2269 153 2064 31 
Q 1859 -91 1600 -91 
Q 1078 -91 714 392 
Q 350 875 350 1734 
Q 350 2594 714 3089 
Q 1078 3584 1600 3584 
Q 1859 3584 2064 3465 
Q 2269 3347 2447 3053 
L 2447 4666 
L 3025 4666 
L 3025 3053 
Q 3203 3347 3408 3465 
Q 3613 3584 3872 3584 
Q 4394 3584 4758 3089 
Q 5122 2594 5122 1734 
Q 5122 875 4758 392 
Q 4394 -91 3872 -91 
Q 3613 -91 3408 31 
Q 3203 153 3025 447 
L 3025 -1331 
L 2447 -1331 
z
M 4525 1747 
Q 4525 2481 4298 2792 
Q 4072 3103 3688 3103 
Q 3381 3103 3025 2578 
L 3025 916 
Q 3381 391 3688 391 
Q 4072 391 4298 702 
Q 4525 1013 4525 1747 
z
" transform="scale(0.015625)"/>
      </defs>
      <use xlink:href="#DejaVuSans-414"/>
      <use xlink:href="#DejaVuSans-43e" transform="translate(78.125 0)"/>
      <use xlink:href="#DejaVuSans-43b" transform="translate(139.306641 0)"/>
      <use xlink:href="#DejaVuSans-44f" transform="translate(203.222656 0)"/>
      <use xlink:href="#DejaVuSans-20" transform="translate(263.378906 0)"/>
      <use xlink:href="#DejaVuSans-434" transform="translate(295.166016 0)"/>
      <use xlink:href="#DejaVuSans-435" transform="translate(364.306641 0)"/>
      <use xlink:href="#DejaVuSans-444" transform="translate(425.830078 0)"/>
      <use xlink:href="#DejaVuSans-435" transform="translate(511.328125 0)"/>
      <use xlink:href="#DejaVuSans-43a" transform="translate(572.851562 0)"/>
      <use xlink:href="#DejaVuSans-442" transform="translate(633.251953 0)"/>
      <use xlink:href="#DejaVuSans-430" transform="translate(691.503906 0)"/>
     </g>
    </g>
   </g>
   <g id="patch_19">
    <path d="M 428.84514 332.44 
L 428.84514 76.128 
" style="fill: none; stroke: #000000; stroke-width: 0.8; stroke-linejoin: miter; stroke-linecap: square"/>
   </g>
   <g id="patch_20">
    <path d="M 758.53236 332.44 
L 758.53236 76.128 
" style="fill: none; stroke: #000000; stroke-width: 0.8; stroke-linejoin: miter; stroke-linecap: square"/>
   </g>
   <g id="patch_21">
    <path d="M 428.84514 332.44 
L 758.53236 332.44 
" style="fill: none; stroke: #000000; stroke-width: 0.8; stroke-linejoin: miter; stroke-linecap: square"/>
   </g>
   <g id="patch_22">
    <path d="M 428.84514 76.128 
L 758.53236 76.128 
" style="fill: none; stroke: #000000; stroke-width: 0.8; stroke-linejoin: miter; stroke-linecap: square"/>
   </g>
   <g id="text_27">
    <!-- 0.000 -->
    <g transform="translate(720.665493 325.65001) scale(0.08 -0.08)">
     <use xlink:href="#DejaVuSans-30"/>
     <use xlink:href="#DejaVuSans-2e" transform="translate(63.623047 0)"/>
     <use xlink:href="#DejaVuSans-30" transform="translate(95.410156 0)"/>
     <use xlink:href="#DejaVuSans-30" transform="translate(159.033203 0)"/>
     <use xlink:href="#DejaVuSans-30" transform="translate(222.65625 0)"/>
    </g>
   </g>
   <g id="text_28">
    <!-- B. Дефекты до/после DBR: -->
    <g transform="translate(516.870078 57.810406) scale(0.11 -0.11)">
     <defs>
      <path id="DejaVuSans-2f" d="M 1625 4666 
L 2156 4666 
L 531 -594 
L 0 -594 
L 1625 4666 
z
" transform="scale(0.015625)"/>
      <path id="DejaVuSans-3a" d="M 750 794 
L 1409 794 
L 1409 0 
L 750 0 
L 750 794 
z
M 750 3309 
L 1409 3309 
L 1409 2516 
L 750 2516 
L 750 3309 
z
" transform="scale(0.015625)"/>
     </defs>
     <use xlink:href="#DejaVuSans-42"/>
     <use xlink:href="#DejaVuSans-2e" transform="translate(68.603516 0)"/>
     <use xlink:href="#DejaVuSans-20" transform="translate(100.390625 0)"/>
     <use xlink:href="#DejaVuSans-414" transform="translate(132.177734 0)"/>
     <use xlink:href="#DejaVuSans-435" transform="translate(210.302734 0)"/>
     <use xlink:href="#DejaVuSans-444" transform="translate(271.826172 0)"/>
     <use xlink:href="#DejaVuSans-435" transform="translate(357.324219 0)"/>
     <use xlink:href="#DejaVuSans-43a" transform="translate(418.847656 0)"/>
     <use xlink:href="#DejaVuSans-442" transform="translate(479.248047 0)"/>
     <use xlink:href="#DejaVuSans-44b" transform="translate(537.5 0)"/>
     <use xlink:href="#DejaVuSans-20" transform="translate(616.455078 0)"/>
     <use xlink:href="#DejaVuSans-434" transform="translate(648.242188 0)"/>
     <use xlink:href="#DejaVuSans-43e" transform="translate(717.382812 0)"/>
     <use xlink:href="#DejaVuSans-2f" transform="translate(778.564453 0)"/>
     <use xlink:href="#DejaVuSans-43f" transform="translate(812.255859 0)"/>
     <use xlink:href="#DejaVuSans-43e" transform="translate(877.636719 0)"/>
     <use xlink:href="#DejaVuSans-441" transform="translate(938.818359 0)"/>
     <use xlink:href="#DejaVuSans-43b" transform="translate(993.798828 0)"/>
     <use xlink:href="#DejaVuSans-435" transform="translate(1057.714844 0)"/>
     <use xlink:href="#DejaVuSans-20" transform="translate(1119.238281 0)"/>
     <use xlink:href="#DejaVuSans-44" transform="translate(1151.025391 0)"/>
     <use xlink:href="#DejaVuSans-42" transform="translate(1228.027344 0)"/>
     <use xlink:href="#DejaVuSans-52" transform="translate(1296.630859 0)"/>
     <use xlink:href="#DejaVuSans-3a" transform="translate(1362.988281 0)"/>
    </g>
    <!-- серия 211–213 -->
    <g transform="translate(551.411797 70.128) scale(0.11 -0.11)">
     <use xlink:href="#DejaVuSans-441"/>
     <use xlink:href="#DejaVuSans-435" transform="translate(54.980469 0)"/>
     <use xlink:href="#DejaVuSans-440" transform="translate(116.503906 0)"/>
     <use xlink:href="#DejaVuSans-438" transform="translate(179.980469 0)"/>
     <use xlink:href="#DejaVuSans-44f" transform="translate(244.970703 0)"/>
     <use xlink:href="#DejaVuSans-20" transform="translate(305.126953 0)"/>
     <use xlink:href="#DejaVuSans-32" transform="translate(336.914062 0)"/>
     <use xlink:href="#DejaVuSans-31" transform="translate(400.537109 0)"/>
     <use xlink:href="#DejaVuSans-31" transform="translate(464.160156 0)"/>
     <use xlink:href="#DejaVuSans-2013" transform="translate(527.783203 0)"/>
     <use xlink:href="#DejaVuSans-32" transform="translate(577.783203 0)"/>
     <use xlink:href="#DejaVuSans-31" transform="translate(641.40625 0)"/>
     <use xlink:href="#DejaVuSans-33" transform="translate(705.029297 0)"/>
    </g>
   </g>
   <g id="legend_2">
    <g id="patch_23">
     <path d="M 672.699078 109.901906 
L 752.23236 109.901906 
Q 754.03236 109.901906 754.03236 108.101906 
L 754.03236 82.428 
Q 754.03236 80.628 752.23236 80.628 
L 672.699078 80.628 
Q 670.899078 80.628 670.899078 82.428 
L 670.899078 108.101906 
Q 670.899078 109.901906 672.699078 109.901906 
z
" style="fill: #ffffff; opacity: 0.8; stroke: #cccccc; stroke-linejoin: miter"/>
    </g>
    <g id="patch_24">
     <path d="M 674.499078 91.219875 
L 692.499078 91.219875 
L 692.499078 84.919875 
L 674.499078 84.919875 
z
" style="fill: #9ea3a8"/>
    </g>
    <g id="text_29">
     <!-- До отбора -->
     <g transform="translate(699.699078 91.219875) scale(0.09 -0.09)">
      <use xlink:href="#DejaVuSans-414"/>
      <use xlink:href="#DejaVuSans-43e" transform="translate(78.125 0)"/>
      <use xlink:href="#DejaVuSans-20" transform="translate(139.306641 0)"/>
      <use xlink:href="#DejaVuSans-43e" transform="translate(171.09375 0)"/>
      <use xlink:href="#DejaVuSans-442" transform="translate(232.275391 0)"/>
      <use xlink:href="#DejaVuSans-431" transform="translate(290.527344 0)"/>
      <use xlink:href="#DejaVuSans-43e" transform="translate(352.197266 0)"/>
      <use xlink:href="#DejaVuSans-440" transform="translate(413.378906 0)"/>
      <use xlink:href="#DejaVuSans-430" transform="translate(476.855469 0)"/>
     </g>
    </g>
    <g id="patch_25">
     <path d="M 674.499078 104.430187 
L 692.499078 104.430187 
L 692.499078 98.130187 
L 674.499078 98.130187 
z
" style="fill: #4e79a7"/>
    </g>
    <g id="text_30">
     <!-- После DBR -->
     <g transform="translate(699.699078 104.430187) scale(0.09 -0.09)">
      <use xlink:href="#DejaVuSans-41f"/>
      <use xlink:href="#DejaVuSans-43e" transform="translate(75.195312 0)"/>
      <use xlink:href="#DejaVuSans-441" transform="translate(136.376953 0)"/>
      <use xlink:href="#DejaVuSans-43b" transform="translate(191.357422 0)"/>
      <use xlink:href="#DejaVuSans-435" transform="translate(255.273438 0)"/>
      <use xlink:href="#DejaVuSans-20" transform="translate(316.796875 0)"/>
      <use xlink:href="#DejaVuSans-44" transform="translate(348.583984 0)"/>
      <use xlink:href="#DejaVuSans-42" transform="translate(425.585938 0)"/>
      <use xlink:href="#DejaVuSans-52" transform="translate(494.189453 0)"/>
     </g>
    </g>
   </g>
  </g>
  <g id="axes_3">
   <g id="patch_26">
    <path d="M 807.546531 332.44 
L 1137.23375 332.44 
L 1137.23375 76.128 
L 807.546531 76.128 
z
" style="fill: #ffffff"/>
   </g>
   <g id="patch_27">
    <path d="M 822.532313 332.44 
L 845.391982 332.44 
L 845.391982 182.639876 
L 822.532313 182.639876 
z
" clip-path="url(#pb4474c18cc)" style="fill: #9ea3a8"/>
   </g>
   <g id="patch_28">
    <path d="M 886.031393 332.44 
L 908.891061 332.44 
L 908.891061 211.118987 
L 886.031393 211.118987 
z
" clip-path="url(#pb4474c18cc)" style="fill: #9ea3a8"/>
   </g>
   <g id="patch_29">
    <path d="M 949.530472 332.44 
L 972.39014 332.44 
L 972.39014 239.598098 
L 949.530472 239.598098 
z
" clip-path="url(#pb4474c18cc)" style="fill: #9ea3a8"/>
   </g>
   <g id="patch_30">
    <path d="M 1013.029551 332.44 
L 1035.88922 332.44 
L 1035.88922 270.070747 
L 1013.029551 270.070747 
z
" clip-path="url(#pb4474c18cc)" style="fill: #9ea3a8"/>
   </g>
   <g id="patch_31">
    <path d="M 1076.52863 332.44 
L 1099.388299 332.44 
L 1099.388299 323.611476 
L 1076.52863 323.611476 
z
" clip-path="url(#pb4474c18cc)" style="fill: #9ea3a8"/>
   </g>
   <g id="patch_32">
    <path d="M 845.391982 332.44 
L 868.25165 332.44 
L 868.25165 186.571883 
L 845.391982 186.571883 
z
" clip-path="url(#pb4474c18cc)" style="fill: #4e79a7"/>
   </g>
   <g id="patch_33">
    <path d="M 908.891061 332.44 
L 931.75073 332.44 
L 931.75073 213.057376 
L 908.891061 213.057376 
z
" clip-path="url(#pb4474c18cc)" style="fill: #4e79a7"/>
   </g>
   <g id="patch_34">
    <path d="M 972.39014 332.44 
L 995.249809 332.44 
L 995.249809 241.350249 
L 972.39014 241.350249 
z
" clip-path="url(#pb4474c18cc)" style="fill: #4e79a7"/>
   </g>
   <g id="patch_35">
    <path d="M 1035.88922 332.44 
L 1058.748888 332.44 
L 1058.748888 272.200337 
L 1035.88922 272.200337 
z
" clip-path="url(#pb4474c18cc)" style="fill: #4e79a7"/>
   </g>
   <g id="patch_36">
    <path d="M 1099.388299 332.44 
L 1122.247967 332.44 
L 1122.247967 332.44 
L 1099.388299 332.44 
z
" clip-path="url(#pb4474c18cc)" style="fill: #4e79a7"/>
   </g>
   <g id="matplotlib.axis_5">
    <g id="xtick_9">
     <g id="line2d_40">
      <g>
       <use xlink:href="#m71d22988fe" x="845.391982" y="332.44" style="stroke: #000000; stroke-width: 0.8"/>
      </g>
     </g>
     <g id="text_31">
      <!-- Неправильный -->
      <g transform="translate(806.243544 347.038437) scale(0.1 -0.1)">
       <use xlink:href="#DejaVuSans-41d"/>
       <use xlink:href="#DejaVuSans-435" transform="translate(75.195312 0)"/>
       <use xlink:href="#DejaVuSans-43f" transform="translate(136.71875 0)"/>
       <use xlink:href="#DejaVuSans-440" transform="translate(202.099609 0)"/>
       <use xlink:href="#DejaVuSans-430" transform="translate(265.576172 0)"/>
       <use xlink:href="#DejaVuSans-432" transform="translate(326.855469 0)"/>
       <use xlink:href="#DejaVuSans-438" transform="translate(385.791016 0)"/>
       <use xlink:href="#DejaVuSans-43b" transform="translate(450.78125 0)"/>
       <use xlink:href="#DejaVuSans-44c" transform="translate(514.697266 0)"/>
       <use xlink:href="#DejaVuSans-43d" transform="translate(573.632812 0)"/>
       <use xlink:href="#DejaVuSans-44b" transform="translate(639.013672 0)"/>
       <use xlink:href="#DejaVuSans-439" transform="translate(717.96875 0)"/>
      </g>
      <!-- ответ -->
      <g transform="translate(830.484169 358.23625) scale(0.1 -0.1)">
       <use xlink:href="#DejaVuSans-43e"/>
       <use xlink:href="#DejaVuSans-442" transform="translate(61.181641 0)"/>
       <use xlink:href="#DejaVuSans-432" transform="translate(119.433594 0)"/>
       <use xlink:href="#DejaVuSans-435" transform="translate(178.369141 0)"/>
       <use xlink:href="#DejaVuSans-442" transform="translate(239.892578 0)"/>
      </g>
     </g>
    </g>
    <g id="xtick_10">
     <g id="line2d_41">
      <g>
       <use xlink:href="#m71d22988fe" x="908.891061" y="332.44" style="stroke: #000000; stroke-width: 0.8"/>
      </g>
     </g>
     <g id="text_32">
      <!-- Слабое -->
      <g transform="translate(889.919967 347.038437) scale(0.1 -0.1)">
       <use xlink:href="#DejaVuSans-421"/>
       <use xlink:href="#DejaVuSans-43b" transform="translate(69.824219 0)"/>
       <use xlink:href="#DejaVuSans-430" transform="translate(133.740234 0)"/>
       <use xlink:href="#DejaVuSans-431" transform="translate(195.019531 0)"/>
       <use xlink:href="#DejaVuSans-43e" transform="translate(256.689453 0)"/>
       <use xlink:href="#DejaVuSans-435" transform="translate(317.871094 0)"/>
      </g>
      <!-- рассуждение -->
      <g transform="translate(873.562155 358.23625) scale(0.1 -0.1)">
       <use xlink:href="#DejaVuSans-440"/>
       <use xlink:href="#DejaVuSans-430" transform="translate(63.476562 0)"/>
       <use xlink:href="#DejaVuSans-441" transform="translate(124.755859 0)"/>
       <use xlink:href="#DejaVuSans-441" transform="translate(179.736328 0)"/>
       <use xlink:href="#DejaVuSans-443" transform="translate(234.716797 0)"/>
       <use xlink:href="#DejaVuSans-436" transform="translate(293.896484 0)"/>
       <use xlink:href="#DejaVuSans-434" transform="translate(383.984375 0)"/>
       <use xlink:href="#DejaVuSans-435" transform="translate(453.125 0)"/>
       <use xlink:href="#DejaVuSans-43d" transform="translate(514.648438 0)"/>
       <use xlink:href="#DejaVuSans-438" transform="translate(580.029297 0)"/>
       <use xlink:href="#DejaVuSans-435" transform="translate(645.019531 0)"/>
      </g>
     </g>
    </g>
    <g id="xtick_11">
     <g id="line2d_42">
      <g>
       <use xlink:href="#m71d22988fe" x="972.39014" y="332.44" style="stroke: #000000; stroke-width: 0.8"/>
      </g>
     </g>
     <g id="text_33">
      <!-- Слабая -->
      <g transform="translate(953.483109 347.038437) scale(0.1 -0.1)">
       <use xlink:href="#DejaVuSans-421"/>
       <use xlink:href="#DejaVuSans-43b" transform="translate(69.824219 0)"/>
       <use xlink:href="#DejaVuSans-430" transform="translate(133.740234 0)"/>
       <use xlink:href="#DejaVuSans-431" transform="translate(195.019531 0)"/>
       <use xlink:href="#DejaVuSans-430" transform="translate(256.689453 0)"/>
       <use xlink:href="#DejaVuSans-44f" transform="translate(317.96875 0)"/>
      </g>
      <!-- структура -->
      <g transform="translate(945.464359 358.23625) scale(0.1 -0.1)">
       <use xlink:href="#DejaVuSans-441"/>
       <use xlink:href="#DejaVuSans-442" transform="translate(54.980469 0)"/>
       <use xlink:href="#DejaVuSans-440" transform="translate(113.232422 0)"/>
       <use xlink:href="#DejaVuSans-443" transform="translate(176.708984 0)"/>
       <use xlink:href="#DejaVuSans-43a" transform="translate(235.888672 0)"/>
       <use xlink:href="#DejaVuSans-442" transform="translate(296.289062 0)"/>
       <use xlink:href="#DejaVuSans-443" transform="translate(354.541016 0)"/>
       <use xlink:href="#DejaVuSans-440" transform="translate(413.720703 0)"/>
       <use xlink:href="#DejaVuSans-430" transform="translate(477.197266 0)"/>
      </g>
     </g>
    </g>
    <g id="xtick_12">
     <g id="line2d_43">
      <g>
       <use xlink:href="#m71d22988fe" x="1035.88922" y="332.44" style="stroke: #000000; stroke-width: 0.8"/>
      </g>
     </g>
     <g id="text_34">
      <!-- Скрытая -->
      <g transform="translate(1013.271251 347.038437) scale(0.1 -0.1)">
       <use xlink:href="#DejaVuSans-421"/>
       <use xlink:href="#DejaVuSans-43a" transform="translate(69.824219 0)"/>
       <use xlink:href="#DejaVuSans-440" transform="translate(130.224609 0)"/>
       <use xlink:href="#DejaVuSans-44b" transform="translate(193.701172 0)"/>
       <use xlink:href="#DejaVuSans-442" transform="translate(272.65625 0)"/>
       <use xlink:href="#DejaVuSans-430" transform="translate(330.908203 0)"/>
       <use xlink:href="#DejaVuSans-44f" transform="translate(392.1875 0)"/>
      </g>
      <!-- ошибка -->
      <g transform="translate(1015.837657 358.23625) scale(0.1 -0.1)">
       <use xlink:href="#DejaVuSans-43e"/>
       <use xlink:href="#DejaVuSans-448" transform="translate(61.181641 0)"/>
       <use xlink:href="#DejaVuSans-438" transform="translate(152.685547 0)"/>
       <use xlink:href="#DejaVuSans-431" transform="translate(217.675781 0)"/>
       <use xlink:href="#DejaVuSans-43a" transform="translate(279.345703 0)"/>
       <use xlink:href="#DejaVuSans-430" transform="translate(339.746094 0)"/>
      </g>
     </g>
    </g>
    <g id="xtick_13">
     <g id="line2d_44">
      <g>
       <use xlink:href="#m71d22988fe" x="1099.388299" y="332.44" style="stroke: #000000; stroke-width: 0.8"/>
      </g>
     </g>
     <g id="text_35">
      <!-- Ошибка -->
      <g transform="translate(1078.460174 347.038437) scale(0.1 -0.1)">
       <use xlink:href="#DejaVuSans-41e"/>
       <use xlink:href="#DejaVuSans-448" transform="translate(78.710938 0)"/>
       <use xlink:href="#DejaVuSans-438" transform="translate(170.214844 0)"/>
       <use xlink:href="#DejaVuSans-431" transform="translate(235.205078 0)"/>
       <use xlink:href="#DejaVuSans-43a" transform="translate(296.875 0)"/>
       <use xlink:href="#DejaVuSans-430" transform="translate(357.275391 0)"/>
      </g>
      <!-- разбора -->
      <g transform="translate(1078.110174 358.440625) scale(0.1 -0.1)">
       <use xlink:href="#DejaVuSans-440"/>
       <use xlink:href="#DejaVuSans-430" transform="translate(63.476562 0)"/>
       <use xlink:href="#DejaVuSans-437" transform="translate(124.755859 0)"/>
       <use xlink:href="#DejaVuSans-431" transform="translate(177.929688 0)"/>
       <use xlink:href="#DejaVuSans-43e" transform="translate(239.599609 0)"/>
       <use xlink:href="#DejaVuSans-440" transform="translate(300.78125 0)"/>
       <use xlink:href="#DejaVuSans-430" transform="translate(364.257812 0)"/>
      </g>
     </g>
    </g>
   </g>
   <g id="matplotlib.axis_6">
    <g id="ytick_13">
     <g id="line2d_45">
      <path d="M 807.546531 332.44 
L 1137.23375 332.44 
" clip-path="url(#pb4474c18cc)" style="fill: none; stroke: #b0b0b0; stroke-opacity: 0.25; stroke-width: 0.8; stroke-linecap: square"/>
     </g>
     <g id="line2d_46">
      <g>
       <use xlink:href="#m8e4cc34f45" x="807.546531" y="332.44" style="stroke: #000000; stroke-width: 0.8"/>
      </g>
     </g>
     <g id="text_36">
      <!-- 0.0 -->
      <g transform="translate(784.643406 336.239219) scale(0.1 -0.1)">
       <use xlink:href="#DejaVuSans-30"/>
       <use xlink:href="#DejaVuSans-2e" transform="translate(63.623047 0)"/>
       <use xlink:href="#DejaVuSans-30" transform="translate(95.410156 0)"/>
      </g>
     </g>
    </g>
    <g id="ytick_14">
     <g id="line2d_47">
      <path d="M 807.546531 281.1776 
L 1137.23375 281.1776 
" clip-path="url(#pb4474c18cc)" style="fill: none; stroke: #b0b0b0; stroke-opacity: 0.25; stroke-width: 0.8; stroke-linecap: square"/>
     </g>
     <g id="line2d_48">
      <g>
       <use xlink:href="#m8e4cc34f45" x="807.546531" y="281.1776" style="stroke: #000000; stroke-width: 0.8"/>
      </g>
     </g>
     <g id="text_37">
      <!-- 0.2 -->
      <g transform="translate(784.643406 284.976819) scale(0.1 -0.1)">
       <use xlink:href="#DejaVuSans-30"/>
       <use xlink:href="#DejaVuSans-2e" transform="translate(63.623047 0)"/>
       <use xlink:href="#DejaVuSans-32" transform="translate(95.410156 0)"/>
      </g>
     </g>
    </g>
    <g id="ytick_15">
     <g id="line2d_49">
      <path d="M 807.546531 229.9152 
L 1137.23375 229.9152 
" clip-path="url(#pb4474c18cc)" style="fill: none; stroke: #b0b0b0; stroke-opacity: 0.25; stroke-width: 0.8; stroke-linecap: square"/>
     </g>
     <g id="line2d_50">
      <g>
       <use xlink:href="#m8e4cc34f45" x="807.546531" y="229.9152" style="stroke: #000000; stroke-width: 0.8"/>
      </g>
     </g>
     <g id="text_38">
      <!-- 0.4 -->
      <g transform="translate(784.643406 233.714419) scale(0.1 -0.1)">
       <use xlink:href="#DejaVuSans-30"/>
       <use xlink:href="#DejaVuSans-2e" transform="translate(63.623047 0)"/>
       <use xlink:href="#DejaVuSans-34" transform="translate(95.410156 0)"/>
      </g>
     </g>
    </g>
    <g id="ytick_16">
     <g id="line2d_51">
      <path d="M 807.546531 178.6528 
L 1137.23375 178.6528 
" clip-path="url(#pb4474c18cc)" style="fill: none; stroke: #b0b0b0; stroke-opacity: 0.25; stroke-width: 0.8; stroke-linecap: square"/>
     </g>
     <g id="line2d_52">
      <g>
       <use xlink:href="#m8e4cc34f45" x="807.546531" y="178.6528" style="stroke: #000000; stroke-width: 0.8"/>
      </g>
     </g>
     <g id="text_39">
      <!-- 0.6 -->
      <g transform="translate(784.643406 182.452019) scale(0.1 -0.1)">
       <use xlink:href="#DejaVuSans-30"/>
       <use xlink:href="#DejaVuSans-2e" transform="translate(63.623047 0)"/>
       <use xlink:href="#DejaVuSans-36" transform="translate(95.410156 0)"/>
      </g>
     </g>
    </g>
    <g id="ytick_17">
     <g id="line2d_53">
      <path d="M 807.546531 127.3904 
L 1137.23375 127.3904 
" clip-path="url(#pb4474c18cc)" style="fill: none; stroke: #b0b0b0; stroke-opacity: 0.25; stroke-width: 0.8; stroke-linecap: square"/>
     </g>
     <g id="line2d_54">
      <g>
       <use xlink:href="#m8e4cc34f45" x="807.546531" y="127.3904" style="stroke: #000000; stroke-width: 0.8"/>
      </g>
     </g>
     <g id="text_40">
      <!-- 0.8 -->
      <g transform="translate(784.643406 131.189619) scale(0.1 -0.1)">
       <use xlink:href="#DejaVuSans-30"/>
       <use xlink:href="#DejaVuSans-2e" transform="translate(63.623047 0)"/>
       <use xlink:href="#DejaVuSans-38" transform="translate(95.410156 0)"/>
      </g>
     </g>
    </g>
    <g id="ytick_18">
     <g id="line2d_55">
      <path d="M 807.546531 76.128 
L 1137.23375 76.128 
" clip-path="url(#pb4474c18cc)" style="fill: none; stroke: #b0b0b0; stroke-opacity: 0.25; stroke-width: 0.8; stroke-linecap: square"/>
     </g>
     <g id="line2d_56">
      <g>
       <use xlink:href="#m8e4cc34f45" x="807.546531" y="76.128" style="stroke: #000000; stroke-width: 0.8"/>
      </g>
     </g>
     <g id="text_41">
      <!-- 1.0 -->
      <g transform="translate(784.643406 79.927219) scale(0.1 -0.1)">
       <use xlink:href="#DejaVuSans-31"/>
       <use xlink:href="#DejaVuSans-2e" transform="translate(63.623047 0)"/>
       <use xlink:href="#DejaVuSans-30" transform="translate(95.410156 0)"/>
      </g>
     </g>
    </g>
    <g id="text_42">
     <!-- Доля дефекта -->
     <g transform="translate(778.563718 241.924625) rotate(-90) scale(0.1 -0.1)">
      <use xlink:href="#DejaVuSans-414"/>
      <use xlink:href="#DejaVuSans-43e" transform="translate(78.125 0)"/>
      <use xlink:href="#DejaVuSans-43b" transform="translate(139.306641 0)"/>
      <use xlink:href="#DejaVuSans-44f" transform="translate(203.222656 0)"/>
      <use xlink:href="#DejaVuSans-20" transform="translate(263.378906 0)"/>
      <use xlink:href="#DejaVuSans-434" transform="translate(295.166016 0)"/>
      <use xlink:href="#DejaVuSans-435" transform="translate(364.306641 0)"/>
      <use xlink:href="#DejaVuSans-444" transform="translate(425.830078 0)"/>
      <use xlink:href="#DejaVuSans-435" transform="translate(511.328125 0)"/>
      <use xlink:href="#DejaVuSans-43a" transform="translate(572.851562 0)"/>
      <use xlink:href="#DejaVuSans-442" transform="translate(633.251953 0)"/>
      <use xlink:href="#DejaVuSans-430" transform="translate(691.503906 0)"/>
     </g>
    </g>
   </g>
   <g id="patch_37">
    <path d="M 807.546531 332.44 
L 807.546531 76.128 
" style="fill: none; stroke: #000000; stroke-width: 0.8; stroke-linejoin: miter; stroke-linecap: square"/>
   </g>
   <g id="patch_38">
    <path d="M 1137.23375 332.44 
L 1137.23375 76.128 
" style="fill: none; stroke: #000000; stroke-width: 0.8; stroke-linejoin: miter; stroke-linecap: square"/>
   </g>
   <g id="patch_39">
    <path d="M 807.546531 332.44 
L 1137.23375 332.44 
" style="fill: none; stroke: #000000; stroke-width: 0.8; stroke-linejoin: miter; stroke-linecap: square"/>
   </g>
   <g id="patch_40">
    <path d="M 807.546531 76.128 
L 1137.23375 76.128 
" style="fill: none; stroke: #000000; stroke-width: 0.8; stroke-linejoin: miter; stroke-linecap: square"/>
   </g>
   <g id="text_43">
    <!-- 0.000 -->
    <g transform="translate(1099.366883 325.65001) scale(0.08 -0.08)">
     <use xlink:href="#DejaVuSans-30"/>
     <use xlink:href="#DejaVuSans-2e" transform="translate(63.623047 0)"/>
     <use xlink:href="#DejaVuSans-30" transform="translate(95.410156 0)"/>
     <use xlink:href="#DejaVuSans-30" transform="translate(159.033203 0)"/>
     <use xlink:href="#DejaVuSans-30" transform="translate(222.65625 0)"/>
    </g>
   </g>
   <g id="text_44">
    <!-- C. Дефекты до/после DBR: -->
    <g transform="translate(895.504437 57.810406) scale(0.11 -0.11)">
     <defs>
      <path id="DejaVuSans-43" d="M 4122 4306 
L 4122 3641 
Q 3803 3938 3442 4084 
Q 3081 4231 2675 4231 
Q 1875 4231 1450 3742 
Q 1025 3253 1025 2328 
Q 1025 1406 1450 917 
Q 1875 428 2675 428 
Q 3081 428 3442 575 
Q 3803 722 4122 1019 
L 4122 359 
Q 3791 134 3420 21 
Q 3050 -91 2638 -91 
Q 1578 -91 968 557 
Q 359 1206 359 2328 
Q 359 3453 968 4101 
Q 1578 4750 2638 4750 
Q 3056 4750 3426 4639 
Q 3797 4528 4122 4306 
z
" transform="scale(0.015625)"/>
     </defs>
     <use xlink:href="#DejaVuSans-43"/>
     <use xlink:href="#DejaVuSans-2e" transform="translate(69.824219 0)"/>
     <use xlink:href="#DejaVuSans-20" transform="translate(101.611328 0)"/>
     <use xlink:href="#DejaVuSans-414" transform="translate(133.398438 0)"/>
     <use xlink:href="#DejaVuSans-435" transform="translate(211.523438 0)"/>
     <use xlink:href="#DejaVuSans-444" transform="translate(273.046875 0)"/>
     <use xlink:href="#DejaVuSans-435" transform="translate(358.544922 0)"/>
     <use xlink:href="#DejaVuSans-43a" transform="translate(420.068359 0)"/>
     <use xlink:href="#DejaVuSans-442" transform="translate(480.46875 0)"/>
     <use xlink:href="#DejaVuSans-44b" transform="translate(538.720703 0)"/>
     <use xlink:href="#DejaVuSans-20" transform="translate(617.675781 0)"/>
     <use xlink:href="#DejaVuSans-434" transform="translate(649.462891 0)"/>
     <use xlink:href="#DejaVuSans-43e" transform="translate(718.603516 0)"/>
     <use xlink:href="#DejaVuSans-2f" transform="translate(779.785156 0)"/>
     <use xlink:href="#DejaVuSans-43f" transform="translate(813.476562 0)"/>
     <use xlink:href="#DejaVuSans-43e" transform="translate(878.857422 0)"/>
     <use xlink:href="#DejaVuSans-441" transform="translate(940.039062 0)"/>
     <use xlink:href="#DejaVuSans-43b" transform="translate(995.019531 0)"/>
     <use xlink:href="#DejaVuSans-435" transform="translate(1058.935547 0)"/>
     <use xlink:href="#DejaVuSans-20" transform="translate(1120.458984 0)"/>
     <use xlink:href="#DejaVuSans-44" transform="translate(1152.246094 0)"/>
     <use xlink:href="#DejaVuSans-42" transform="translate(1229.248047 0)"/>
     <use xlink:href="#DejaVuSans-52" transform="translate(1297.851562 0)"/>
     <use xlink:href="#DejaVuSans-3a" transform="translate(1364.208984 0)"/>
    </g>
    <!-- чистая DBR-серия 221–223 -->
    <g transform="translate(895.040375 70.128) scale(0.11 -0.11)">
     <defs>
      <path id="DejaVuSans-447" d="M 2625 0 
L 2625 1472 
L 1553 1472 
Q 1075 1472 756 1769 
Q 469 2038 469 2613 
L 469 3500 
L 1044 3500 
L 1044 2666 
Q 1044 2300 1206 2116 
Q 1372 1931 1697 1931 
L 2625 1931 
L 2625 3500 
L 3200 3500 
L 3200 0 
L 2625 0 
z
" transform="scale(0.015625)"/>
     </defs>
     <use xlink:href="#DejaVuSans-447"/>
     <use xlink:href="#DejaVuSans-438" transform="translate(59.082031 0)"/>
     <use xlink:href="#DejaVuSans-441" transform="translate(124.072266 0)"/>
     <use xlink:href="#DejaVuSans-442" transform="translate(179.052734 0)"/>
     <use xlink:href="#DejaVuSans-430" transform="translate(237.304688 0)"/>
     <use xlink:href="#DejaVuSans-44f" transform="translate(298.583984 0)"/>
     <use xlink:href="#DejaVuSans-20" transform="translate(358.740234 0)"/>
     <use xlink:href="#DejaVuSans-44" transform="translate(390.527344 0)"/>
     <use xlink:href="#DejaVuSans-42" transform="translate(467.529297 0)"/>
     <use xlink:href="#DejaVuSans-52" transform="translate(536.132812 0)"/>
     <use xlink:href="#DejaVuSans-2d" transform="translate(601.615234 0)"/>
     <use xlink:href="#DejaVuSans-441" transform="translate(637.699219 0)"/>
     <use xlink:href="#DejaVuSans-435" transform="translate(692.679688 0)"/>
     <use xlink:href="#DejaVuSans-440" transform="translate(754.203125 0)"/>
     <use xlink:href="#DejaVuSans-438" transform="translate(817.679688 0)"/>
     <use xlink:href="#DejaVuSans-44f" transform="translate(882.669922 0)"/>
     <use xlink:href="#DejaVuSans-20" transform="translate(942.826172 0)"/>
     <use xlink:href="#DejaVuSans-32" transform="translate(974.613281 0)"/>
     <use xlink:href="#DejaVuSans-32" transform="translate(1038.236328 0)"/>
     <use xlink:href="#DejaVuSans-31" transform="translate(1101.859375 0)"/>
     <use xlink:href="#DejaVuSans-2013" transform="translate(1165.482422 0)"/>
     <use xlink:href="#DejaVuSans-32" transform="translate(1215.482422 0)"/>
     <use xlink:href="#DejaVuSans-32" transform="translate(1279.105469 0)"/>
     <use xlink:href="#DejaVuSans-33" transform="translate(1342.728516 0)"/>
    </g>
   </g>
  </g>
  <g id="text_45">
   <!-- Механизм DBR: покрытие и дефектный профиль -->
   <g transform="translate(404.331719 17.077969) scale(0.13 -0.13)">
    <defs>
     <path id="DejaVuSans-41c" d="M 628 4666 
L 1569 4666 
L 2759 1491 
L 3956 4666 
L 4897 4666 
L 4897 0 
L 4281 0 
L 4281 4097 
L 3078 897 
L 2444 897 
L 1241 4097 
L 1241 0 
L 628 0 
L 628 4666 
z
" transform="scale(0.015625)"/>
     <path id="DejaVuSans-445" d="M 3513 3500 
L 2247 1797 
L 3578 0 
L 2900 0 
L 1881 1375 
L 863 0 
L 184 0 
L 1544 1831 
L 300 3500 
L 978 3500 
L 1906 2253 
L 2834 3500 
L 3513 3500 
z
" transform="scale(0.015625)"/>
    </defs>
    <use xlink:href="#DejaVuSans-41c"/>
    <use xlink:href="#DejaVuSans-435" transform="translate(86.279297 0)"/>
    <use xlink:href="#DejaVuSans-445" transform="translate(147.802734 0)"/>
    <use xlink:href="#DejaVuSans-430" transform="translate(206.982422 0)"/>
    <use xlink:href="#DejaVuSans-43d" transform="translate(268.261719 0)"/>
    <use xlink:href="#DejaVuSans-438" transform="translate(333.642578 0)"/>
    <use xlink:href="#DejaVuSans-437" transform="translate(398.632812 0)"/>
    <use xlink:href="#DejaVuSans-43c" transform="translate(451.806641 0)"/>
    <use xlink:href="#DejaVuSans-20" transform="translate(527.246094 0)"/>
    <use xlink:href="#DejaVuSans-44" transform="translate(559.033203 0)"/>
    <use xlink:href="#DejaVuSans-42" transform="translate(636.035156 0)"/>
    <use xlink:href="#DejaVuSans-52" transform="translate(704.638672 0)"/>
    <use xlink:href="#DejaVuSans-3a" transform="translate(770.996094 0)"/>
    <use xlink:href="#DejaVuSans-20" transform="translate(804.6875 0)"/>
    <use xlink:href="#DejaVuSans-43f" transform="translate(836.474609 0)"/>
    <use xlink:href="#DejaVuSans-43e" transform="translate(901.855469 0)"/>
    <use xlink:href="#DejaVuSans-43a" transform="translate(963.037109 0)"/>
    <use xlink:href="#DejaVuSans-440" transform="translate(1023.4375 0)"/>
    <use xlink:href="#DejaVuSans-44b" transform="translate(1086.914062 0)"/>
    <use xlink:href="#DejaVuSans-442" transform="translate(1165.869141 0)"/>
    <use xlink:href="#DejaVuSans-438" transform="translate(1224.121094 0)"/>
    <use xlink:href="#DejaVuSans-435" transform="translate(1289.111328 0)"/>
    <use xlink:href="#DejaVuSans-20" transform="translate(1350.634766 0)"/>
    <use xlink:href="#DejaVuSans-438" transform="translate(1382.421875 0)"/>
    <use xlink:href="#DejaVuSans-20" transform="translate(1447.412109 0)"/>
    <use xlink:href="#DejaVuSans-434" transform="translate(1479.199219 0)"/>
    <use xlink:href="#DejaVuSans-435" transform="translate(1548.339844 0)"/>
    <use xlink:href="#DejaVuSans-444" transform="translate(1609.863281 0)"/>
    <use xlink:href="#DejaVuSans-435" transform="translate(1695.361328 0)"/>
    <use xlink:href="#DejaVuSans-43a" transform="translate(1756.884766 0)"/>
    <use xlink:href="#DejaVuSans-442" transform="translate(1817.285156 0)"/>
    <use xlink:href="#DejaVuSans-43d" transform="translate(1875.537109 0)"/>
    <use xlink:href="#DejaVuSans-44b" transform="translate(1940.917969 0)"/>
    <use xlink:href="#DejaVuSans-439" transform="translate(2019.873047 0)"/>
    <use xlink:href="#DejaVuSans-20" transform="translate(2084.863281 0)"/>
    <use xlink:href="#DejaVuSans-43f" transform="translate(2116.650391 0)"/>
    <use xlink:href="#DejaVuSans-440" transform="translate(2182.03125 0)"/>
    <use xlink:href="#DejaVuSans-43e" transform="translate(2245.507812 0)"/>
    <use xlink:href="#DejaVuSans-444" transform="translate(2306.689453 0)"/>
    <use xlink:href="#DejaVuSans-438" transform="translate(2392.1875 0)"/>
    <use xlink:href="#DejaVuSans-43b" transform="translate(2457.177734 0)"/>
    <use xlink:href="#DejaVuSans-44c" transform="translate(2521.09375 0)"/>
   </g>
  </g>
 </g>
 <defs>
  <clipPath id="p049de7b362">
   <rect x="50.14375" y="76.128" width="329.687219" height="256.312"/>
  </clipPath>
  <clipPath id="p476ac4390f">
   <rect x="428.84514" y="76.128" width="329.687219" height="256.312"/>
  </clipPath>
  <clipPath id="pb4474c18cc">
   <rect x="807.546531" y="76.128" width="329.687219" height="256.312"/>
  </clipPath>
 </defs>
</svg>
